<svg width="21" height="24" viewBox="0 0 21 24" fill="none" xmlns="http://www.w3.org/2000/svg">
<g id="Basketball Icon">
<path id="Vector" d="M10.3921 24L0 17.9998V6.00023L10.3921 0L20.7843 6.00023V17.9998L10.3921 24ZM0.917466 17.4704L10.3921 22.9403L19.8668 17.4704V6.52961L10.3921 1.05968L0.917466 6.52961V17.4704Z" fill="#F2F2F2"/>
<g id="Group">
<path id="Vector_2" d="M10.1747 6.95531V8.30123C10.0729 8.30765 9.98204 8.31041 9.89121 8.31958C9.7279 8.33609 9.56642 8.35811 9.40311 8.37188C9.37651 8.37371 9.33247 8.35261 9.3233 8.33059C9.1187 7.83149 8.73061 7.5746 8.215 7.48285C8.20674 7.48102 8.1994 7.47368 8.17188 7.45716C8.34803 7.38468 8.50767 7.3122 8.67098 7.25257C9.07833 7.10302 9.49853 7.00669 9.93157 6.97182C9.95359 6.96999 9.97561 6.96081 9.99763 6.95531C10.0564 6.95531 10.116 6.95531 10.1747 6.95531Z" fill="#F2F2F2"/>
<path id="Vector_3" d="M10.7846 6.95529C10.9937 6.98832 11.2048 7.01493 11.413 7.0553C11.8029 7.13145 12.1773 7.25897 12.536 7.42962C12.5553 7.4388 12.5736 7.45072 12.5892 7.4599C12.4277 7.51678 12.2644 7.56174 12.1121 7.62963C11.8149 7.76175 11.6075 7.98836 11.4837 8.28745C11.4525 8.36177 11.4194 8.38379 11.3405 8.3737C11.1231 8.34709 10.9038 8.33057 10.6855 8.30856C10.6634 8.30672 10.6414 8.29938 10.6084 8.29204V6.95438C10.6671 6.95438 10.7268 6.95438 10.7855 6.95438L10.7846 6.95529Z" fill="#F2F2F2"/>
<path id="Vector_4" d="M10.1634 17.0438C9.80288 17.0263 9.45424 16.9823 9.1212 16.8722C8.72761 16.7419 8.33402 16.6034 7.95602 16.4336C7.65601 16.2988 7.45508 16.0345 7.29086 15.7538C6.99819 15.2529 6.93672 14.7116 6.98993 14.1409C7.0569 13.4216 7.4193 12.8546 7.85785 12.3161C8.15144 11.9546 8.44044 11.5885 8.71109 11.2105C9.06524 10.7178 9.31112 10.1719 9.39736 9.56641C9.42764 9.35631 9.43039 9.14163 9.43039 8.92969C9.43039 8.83978 9.44966 8.81226 9.53957 8.80583C9.74508 8.79115 9.94967 8.76455 10.1625 8.74069V17.0438H10.1634Z" fill="#F2F2F2"/>
<path id="Vector_5" d="M10.6172 8.74069C10.8511 8.76546 11.0759 8.78657 11.2998 8.81592C11.319 8.81868 11.3475 8.87189 11.3457 8.90033C11.319 9.43063 11.4218 9.93707 11.6282 10.4233C11.8273 10.8922 12.1154 11.3059 12.4283 11.7041C12.6943 12.0417 12.9622 12.3775 13.2255 12.717C13.6971 13.3234 13.8568 14.017 13.7797 14.7703C13.7146 15.4134 13.4384 15.9538 12.9209 16.3465C12.7448 16.4804 12.5246 16.5603 12.3173 16.6474C11.8099 16.8594 11.2814 16.9961 10.7319 17.0383C10.6961 17.041 10.6603 17.0383 10.6172 17.0383V8.74069Z" fill="#F2F2F2"/>
<path id="Vector_6" d="M6.54226 15.2749C6.41565 15.1088 6.28262 14.9474 6.16335 14.7758C5.8459 14.3207 5.60278 13.8308 5.48075 13.284C5.3468 12.6821 5.40185 12.0968 5.63764 11.5307C5.97251 10.7233 6.55235 10.1251 7.27256 9.65174C7.77534 9.32145 8.32123 9.0875 8.90198 8.93336C8.92676 8.92694 8.95245 8.92143 8.98823 8.91318C9.00474 9.14713 8.98547 9.37283 8.94327 9.59761C8.824 10.2408 8.49922 10.783 8.10838 11.2912C7.78268 11.7151 7.44321 12.1289 7.12394 12.5583C6.76704 13.0381 6.59639 13.5923 6.52666 14.1813C6.48354 14.5437 6.48997 14.9042 6.54226 15.2731V15.2749Z" fill="#F2F2F2"/>
<path id="Vector_7" d="M14.2483 15.2538C14.2574 14.9896 14.2831 14.7116 14.273 14.4363C14.2437 13.6647 13.9969 12.9675 13.5161 12.3564C13.1794 11.928 12.839 11.5032 12.5115 11.0683C12.25 10.7206 12.0436 10.3408 11.9179 9.92147C11.8197 9.59577 11.7729 9.26365 11.794 8.89941C12.0528 8.98657 12.3078 9.05905 12.5519 9.1563C13.2363 9.42879 13.8483 9.81688 14.3602 10.3508C14.8795 10.8912 15.2345 11.5179 15.3465 12.2693C15.4135 12.7197 15.3538 13.1592 15.2189 13.5895C15.0217 14.2161 14.6712 14.7556 14.2501 15.252C14.2446 15.2584 14.2345 15.262 14.2473 15.2538H14.2483Z" fill="#F2F2F2"/>
<path id="Vector_8" d="M5.45111 10.9747C5.52359 10.5921 5.6447 10.227 5.80892 9.87743C6.16949 9.10859 6.68877 8.4682 7.36862 7.959C7.39614 7.9379 7.43009 7.91405 7.46312 7.9113C7.81175 7.88652 8.15764 7.88285 8.48517 8.03424C8.67876 8.12323 8.80904 8.27002 8.89436 8.47187C7.42 8.86363 6.22545 9.63063 5.4502 10.9747H5.45111Z" fill="#F2F2F2"/>
<path id="Vector_9" d="M11.8867 8.47095C12.0371 8.11497 12.3252 7.97185 12.6702 7.92689C12.8739 7.90029 13.0821 7.90854 13.2876 7.90579C13.3234 7.90579 13.3656 7.92231 13.3941 7.94433C14.4097 8.71224 15.0593 9.71595 15.3327 10.961C15.3327 10.9637 15.3308 10.9674 15.3272 10.9793C14.5537 9.63063 13.361 8.86363 11.8857 8.47187L11.8867 8.47095Z" fill="#F2F2F2"/>
</g>
</g>
</svg>
