<svg width="53" height="62" viewBox="0 0 53 62" fill="none" xmlns="http://www.w3.org/2000/svg">
<path d="M26.5 61.9976L0 46.4994V15.5006L26.5 0L53 15.5006V46.4994L26.5 62V61.9976ZM2.33954 45.1318L26.5 59.2625L50.6605 45.1318V16.8682L26.5 2.73749L2.33954 16.8682V45.1318Z" fill="#9ECB3B"/>
<path d="M25.9451 17.9678V21.4448C25.6854 21.4614 25.4538 21.4685 25.2222 21.4922C24.8058 21.5349 24.394 21.5918 23.9776 21.6273C23.9097 21.6321 23.7974 21.5775 23.774 21.5207C23.2523 20.2313 22.2627 19.5677 20.9478 19.3307C20.9268 19.3259 20.9081 19.307 20.8379 19.2643C21.2871 19.0771 21.6942 18.8898 22.1106 18.7358C23.1494 18.3494 24.2209 18.1006 25.3251 18.0105C25.3813 18.0058 25.4374 17.9821 25.4936 17.9678C25.6433 17.9678 25.7954 17.9678 25.9451 17.9678Z" fill="#9ECB3B"/>
<path d="M27.501 17.9679C28.0344 18.0532 28.5725 18.1219 29.1035 18.2262C30.0978 18.4229 31.0524 18.7524 31.9671 19.1932C32.0163 19.2169 32.0631 19.2477 32.1028 19.2714C31.6911 19.4184 31.2746 19.5345 30.8863 19.7099C30.1283 20.0512 29.5995 20.6366 29.2837 21.4093C29.2041 21.6013 29.1199 21.6581 28.9187 21.6321C28.3642 21.5633 27.8051 21.5207 27.2483 21.4638C27.1921 21.4591 27.136 21.4401 27.0518 21.4211V17.9655C27.2015 17.9655 27.3536 17.9655 27.5033 17.9655L27.501 17.9679Z" fill="#9ECB3B"/>
<path d="M25.9178 44.0297C24.9983 43.9847 24.1093 43.8709 23.2601 43.5865C22.2564 43.25 21.2527 42.8921 20.2888 42.4536C19.5238 42.1052 19.0114 41.4226 18.5927 40.6973C17.8464 39.4032 17.6896 38.0049 17.8253 36.5307C17.9961 34.6725 18.9202 33.2078 20.0385 31.8165C20.7872 30.8827 21.5241 29.937 22.2143 28.9605C23.1173 27.6877 23.7443 26.2775 23.9643 24.7132C24.0415 24.1705 24.0485 23.6159 24.0485 23.0684C24.0485 22.8361 24.0976 22.765 24.3269 22.7484C24.8509 22.7105 25.3727 22.6417 25.9154 22.5801V44.0297H25.9178Z" fill="#9ECB3B"/>
<path d="M27.0752 22.5801C27.6718 22.6441 28.245 22.6986 28.8158 22.7745C28.8649 22.7816 28.9375 22.9191 28.9328 22.9925C28.8649 24.3625 29.127 25.6708 29.6534 26.9269C30.1611 28.1381 30.8957 29.207 31.6935 30.2356C32.3719 31.1078 33.0551 31.9753 33.7265 32.8522C34.929 34.4189 35.3361 36.2107 35.1396 38.1566C34.9735 39.818 34.2693 41.214 32.9498 42.2284C32.5006 42.5745 31.9391 42.7807 31.4104 43.0058C30.1166 43.5533 28.769 43.9065 27.3676 44.0155C27.2764 44.0226 27.1852 44.0155 27.0752 44.0155V22.5801Z" fill="#9ECB3B"/>
<path d="M16.6833 39.4601C16.3605 39.0311 16.0212 38.614 15.7171 38.1708C14.9076 36.9952 14.2876 35.7296 13.9765 34.317C13.6349 32.7622 13.7753 31.25 14.3765 29.7877C15.2305 27.702 16.709 26.1566 18.5456 24.9337C19.8277 24.0804 21.2197 23.476 22.7006 23.0779C22.7638 23.0613 22.8293 23.047 22.9205 23.0257C22.9626 23.6301 22.9135 24.2131 22.8059 24.7938C22.5018 26.4553 21.6736 27.856 20.6769 29.1691C19.8464 30.2641 18.9807 31.333 18.1666 32.4422C17.2565 33.6818 16.8213 35.1133 16.6435 36.6349C16.5336 37.5711 16.55 38.5026 16.6833 39.4554V39.4601Z" fill="#9ECB3B"/>
<path d="M36.3335 39.4056C36.3569 38.723 36.4224 38.0049 36.3967 37.2938C36.3218 35.3006 35.6924 33.4993 34.4665 31.9208C33.6079 30.8139 32.7399 29.7166 31.9047 28.5931C31.238 27.6948 30.7116 26.7136 30.391 25.6305C30.1407 24.7891 30.0214 23.9311 30.0752 22.9902C30.735 23.2153 31.3853 23.4026 32.0077 23.6538C33.753 24.3577 35.3134 25.3603 36.6189 26.7397C37.9431 28.1357 38.8485 29.7545 39.1339 31.6956C39.3047 32.8593 39.1526 33.9946 38.8087 35.1062C38.3057 36.725 37.412 38.1186 36.3382 39.4009C36.3241 39.4175 36.2984 39.4269 36.3311 39.4056H36.3335Z" fill="#9ECB3B"/>
<path d="M13.9018 28.3514C14.0866 27.363 14.3954 26.4197 14.8142 25.5167C15.7336 23.5305 17.0578 21.8762 18.7914 20.5608C18.8616 20.5063 18.9481 20.4447 19.0324 20.4375C19.9214 20.3735 20.8034 20.3641 21.6386 20.7551C22.1323 20.985 22.4645 21.3643 22.6821 21.8857C18.9224 22.8977 15.8763 24.8791 13.8994 28.3514H13.9018Z" fill="#9ECB3B"/>
<path d="M30.3109 21.8833C30.6946 20.9637 31.4292 20.594 32.3089 20.4778C32.8283 20.4091 33.3594 20.4304 33.8834 20.4233C33.9747 20.4233 34.0823 20.466 34.1548 20.5229C36.7447 22.5066 38.4011 25.0996 39.0983 28.3158C39.0983 28.3229 39.0936 28.3324 39.0842 28.3632C37.112 24.8791 34.0706 22.8977 30.3086 21.8857L30.3109 21.8833Z" fill="#9ECB3B"/>
</svg>
