<svg width="53" height="62" viewBox="0 0 53 62" fill="none" xmlns="http://www.w3.org/2000/svg">
<path d="M26.5 0L0 15.5006V46.4994L26.5 62L53 46.4994V15.5006L26.5 0ZM14.814 25.5167C15.7358 23.5306 17.0576 21.8738 18.7935 20.5584C18.8637 20.5063 18.9503 20.4423 19.0322 20.4376C19.9212 20.3736 20.8056 20.3641 21.6408 20.7552C22.1321 20.9874 22.4666 21.3643 22.6842 21.8857C18.9246 22.8954 15.8785 24.8792 13.9016 28.3514C14.0864 27.3631 14.3952 26.4197 14.814 25.5167ZM15.717 38.1708C14.9076 36.9952 14.2876 35.7296 13.9764 34.3194C13.6349 32.7622 13.7776 31.2524 14.3765 29.7877C15.2304 27.7043 16.709 26.159 18.5456 24.936C19.8276 24.0804 21.2197 23.4784 22.7006 23.0802C22.7638 23.0636 22.8293 23.0494 22.9205 23.0281C22.9603 23.6325 22.9111 24.2155 22.8059 24.7986C22.5041 26.46 21.6735 27.8608 20.6769 29.1738C19.8463 30.2688 18.9807 31.3377 18.1665 32.447C17.2565 33.6865 16.8213 35.1181 16.6435 36.6397C16.5335 37.5759 16.5499 38.5074 16.6833 39.4601C16.3604 39.0312 16.0212 38.614 15.717 38.1708ZM25.9175 44.0297C25.0004 43.9871 24.109 43.8733 23.2597 43.5889C22.2561 43.2523 21.2524 42.8945 20.2885 42.4536C19.5235 42.1052 19.0135 41.425 18.5947 40.6974C17.846 39.4056 17.6916 38.0049 17.825 36.5307C17.9958 34.6725 18.9222 33.2078 20.0382 31.8165C20.7868 30.8827 21.5238 29.9346 22.2163 28.9581C23.117 27.6854 23.744 26.2775 23.9663 24.7133C24.0435 24.1705 24.0505 23.6159 24.0505 23.066C24.0505 22.8337 24.0996 22.765 24.3289 22.7484C24.853 22.7105 25.3747 22.6394 25.9175 22.5801V44.0297ZM25.9455 21.4472C25.6835 21.4638 25.4519 21.4733 25.2226 21.497C24.8062 21.5373 24.3921 21.5942 23.978 21.6297C23.9101 21.6368 23.7955 21.58 23.7721 21.5231C23.2504 20.2337 22.2631 19.5701 20.9483 19.3331C20.9272 19.3283 20.9085 19.3094 20.8383 19.2667C21.2875 19.0795 21.6946 18.8922 22.111 18.7382C23.1498 18.3518 24.2213 18.103 25.3256 18.0129C25.3817 18.0082 25.4355 17.9845 25.4917 17.9703H25.9455V21.4472ZM33.8836 20.4233C33.9748 20.4233 34.0801 20.466 34.155 20.5229C36.7449 22.5067 38.4013 25.0996 39.0984 28.3158C39.1008 28.3229 39.0961 28.3324 39.0867 28.3632C37.1145 24.8792 34.0708 22.8977 30.3111 21.8857C30.6925 20.9661 31.4294 20.594 32.3067 20.4778C32.8261 20.4091 33.3572 20.4304 33.8836 20.4233ZM27.0498 17.9703H27.5013C28.0371 18.0556 28.5752 18.1219 29.1039 18.2286C30.1006 18.4253 31.0527 18.7524 31.9699 19.1932C32.019 19.2169 32.0634 19.2501 32.1032 19.2715C31.6914 19.4184 31.275 19.5345 30.8866 19.7099C30.1263 20.0512 29.5976 20.639 29.2817 21.4117C29.2045 21.6037 29.1179 21.6605 28.9167 21.6345C28.3623 21.5657 27.8031 21.5231 27.2463 21.4662C27.1902 21.4614 27.134 21.4425 27.0498 21.4235V17.9703ZM35.1423 38.159C34.9762 39.8204 34.272 41.2164 32.9525 42.2308C32.5033 42.5745 31.9418 42.7831 31.413 43.0058C30.1193 43.5557 28.774 43.9089 27.3703 44.0179C27.2791 44.025 27.1878 44.0179 27.0779 44.0179V22.5825C27.6721 22.6441 28.2453 22.701 28.8161 22.7745C28.8676 22.7816 28.9378 22.9191 28.9355 22.9925C28.8676 24.3648 29.1296 25.6708 29.656 26.9269C30.1637 28.1381 30.8983 29.207 31.6961 30.2356C32.3723 31.1078 33.0554 31.9777 33.7292 32.8522C34.9317 34.4189 35.3388 36.2131 35.1423 38.159ZM38.8083 35.1062C38.3053 36.725 37.414 38.1187 36.3401 39.4009C36.3378 39.4033 36.3354 39.4056 36.3331 39.408C36.3565 38.723 36.422 38.0073 36.3963 37.2939C36.3214 35.3006 35.6921 33.4993 34.4661 31.9208C33.6075 30.8163 32.7396 29.7166 31.9043 28.5931C31.2399 27.6949 30.7112 26.7136 30.3907 25.6305C30.1403 24.7891 30.021 23.9311 30.0748 22.9902C30.7346 23.2153 31.385 23.4049 32.0073 23.6562C33.7549 24.3601 35.3131 25.3627 36.6209 26.7421C37.9427 28.1381 38.8504 29.7569 39.1359 31.6956C39.3067 32.8594 39.1546 33.9946 38.8083 35.1062Z" fill="#A9D052"/>
</svg>
