<svg width="170" height="200" viewBox="0 0 170 200" fill="none" xmlns="http://www.w3.org/2000/svg">
<g clip-path="url(#clip0_2886_4526)">
<path d="M118.975 43.44V82.63L100.215 101.39L100.165 101.44V24.63L100.185 24.65L100.215 24.68L118.975 43.44Z" fill="url(#paint0_linear_2886_4526)"/>
<path d="M69.8346 142.01V65.2L69.8147 65.22L51.0146 84.01V123.2L69.8346 142.01Z" fill="url(#paint1_linear_2886_4526)"/>
<path d="M75.595 126.01V65.2H69.835L94.405 40.63V101.45H100.165L75.595 126.01Z" fill="#9ECC3B"/>
<path d="M84.9947 199.77L0.264648 156.43V89.66L6.61465 83.32L0.774648 77.48V0H169.225V77.48L163.385 83.32L169.735 89.66V156.43L85.0046 199.77H84.9947ZM6.02465 152.91L85.0046 193.3L163.985 152.91V92.05H146.525L163.475 75.1V5.76H6.53465V75.1H22.9946L6.02465 92.05V152.91Z" fill="url(#paint2_linear_2886_4526)"/>
</g>
<defs>
<linearGradient id="paint0_linear_2886_4526" x1="109.565" y1="101.44" x2="109.565" y2="24.63" gradientUnits="userSpaceOnUse">
<stop stop-color="#039543"/>
<stop offset="0.06" stop-color="#27A241"/>
<stop offset="0.11" stop-color="#47AD3F"/>
<stop offset="0.18" stop-color="#62B63E"/>
<stop offset="0.25" stop-color="#78BE3D"/>
<stop offset="0.34" stop-color="#89C43C"/>
<stop offset="0.44" stop-color="#95C83B"/>
<stop offset="0.59" stop-color="#9CCB3B"/>
<stop offset="1" stop-color="#9ECC3B"/>
</linearGradient>
<linearGradient id="paint1_linear_2886_4526" x1="60.4246" y1="142.01" x2="60.4246" y2="65.2" gradientUnits="userSpaceOnUse">
<stop stop-color="#9ECC3B"/>
<stop offset="0.41" stop-color="#9CCB3B"/>
<stop offset="0.56" stop-color="#95C83B"/>
<stop offset="0.66" stop-color="#89C43C"/>
<stop offset="0.75" stop-color="#78BE3D"/>
<stop offset="0.82" stop-color="#62B63E"/>
<stop offset="0.89" stop-color="#47AD3F"/>
<stop offset="0.94" stop-color="#27A241"/>
<stop offset="1" stop-color="#009444"/>
</linearGradient>
<linearGradient id="paint2_linear_2886_4526" x1="84.9947" y1="198.66" x2="84.9947" y2="0.399989" gradientUnits="userSpaceOnUse">
<stop stop-color="#009444"/>
<stop offset="0.13" stop-color="#0D9843"/>
<stop offset="0.39" stop-color="#31A541"/>
<stop offset="0.73" stop-color="#6BBA3D"/>
<stop offset="1" stop-color="#9ECC3B"/>
</linearGradient>
<clipPath id="clip0_2886_4526">
<rect width="169.47" height="199.77" fill="white" transform="translate(0.264648)"/>
</clipPath>
</defs>
</svg>
