<svg width="32" height="42" viewBox="0 0 32 42" fill="none" xmlns="http://www.w3.org/2000/svg">
<path id="Play" d="M3.16017 0.353935C2.8611 0.150677 2.50919 0.029915 2.143 0.00487899C1.7768 -0.020157 1.41046 0.0514993 1.08409 0.211997C0.757725 0.372495 0.483935 0.615641 0.292716 0.914798C0.101496 1.21395 0.000226277 1.55758 0 1.90802V40.092C0.000226277 40.4424 0.101496 40.786 0.292716 41.0852C0.483935 41.3844 0.757725 41.6275 1.08409 41.788C1.41046 41.9485 1.7768 42.0202 2.143 41.9951C2.50919 41.9701 2.8611 41.8493 3.16017 41.6461L31.1617 22.5541C31.421 22.3775 31.6323 22.1443 31.7781 21.874C31.9239 21.6037 32 21.304 32 21C32 20.696 31.9239 20.3963 31.7781 20.126C31.6323 19.8557 31.421 19.6225 31.1617 19.4459L3.16017 0.353935Z" fill="#9ECB3B"/>
</svg>
