<svg width="21" height="24" viewBox="0 0 21 24" fill="none" xmlns="http://www.w3.org/2000/svg">
<g id="Softball Icon">
<path id="Vector" d="M10.3921 23.9991L0 17.9989V6.00023L10.3921 0L20.7843 6.00023V17.9998L10.3921 24V23.9991ZM0.917466 17.4704L10.3921 22.9403L19.8668 17.4704V6.52961L10.3921 1.05967L0.917466 6.52961V17.4704Z" fill="#F2F2F2"/>
<g id="Group">
<path id="Vector_2" d="M15.4672 12.0005C15.4672 12.0638 15.4663 12.1271 15.4635 12.1904C15.4635 12.2225 15.4608 12.2546 15.4589 12.2867C15.4571 12.3262 15.4544 12.3638 15.4516 12.4023C15.4489 12.4409 15.4452 12.4803 15.4406 12.5188C15.4378 12.5482 15.4351 12.5776 15.4314 12.6069C15.4268 12.6409 15.4232 12.6757 15.4177 12.7097C15.4112 12.7555 15.4048 12.8014 15.3966 12.8464C15.3892 12.8932 15.381 12.939 15.3718 12.9849C15.3654 13.0143 15.3599 13.0445 15.3534 13.0739C15.3479 13.0978 15.3424 13.1225 15.3369 13.1464C15.3287 13.1831 15.3195 13.2189 15.3103 13.2546C15.2993 13.2996 15.2874 13.3436 15.2745 13.3877C15.2397 13.5115 15.1993 13.6336 15.1562 13.7538C15.1452 13.7831 15.1342 13.8125 15.1222 13.8418C15.1103 13.873 15.0975 13.9033 15.0855 13.9345C15.0718 13.9666 15.058 13.9987 15.0442 14.0299C15.0259 14.0721 15.0076 14.1125 14.9883 14.1538C14.969 14.1941 14.9498 14.2354 14.9287 14.2758C14.9085 14.3152 14.8883 14.3556 14.8672 14.3951C14.569 14.9501 14.1708 15.4428 13.6965 15.8502C13.6846 15.83 13.6736 15.8098 13.6616 15.7896L13.8717 14.8832L13.513 14.307L13.3277 15.1043C13.2295 14.8648 13.1433 14.6143 13.0717 14.3547L13.558 13.6125L13.4194 12.9473L12.9249 13.7015C12.8717 13.3932 12.8359 13.0748 12.8221 12.7491L13.3983 12.3115L13.491 11.6381L12.8203 12.1473C12.8313 11.8454 12.8616 11.55 12.9066 11.2628L13.6158 10.7243L13.7084 10.0518L13.0589 10.5445C13.1286 10.2839 13.213 10.0334 13.3102 9.79305L14.1516 9.53524L14.4571 8.96091C14.4965 9.01412 14.5351 9.06733 14.5727 9.12238C14.5892 9.14532 14.6048 9.16825 14.6195 9.19211C14.6598 9.25083 14.6974 9.31138 14.7351 9.37285C14.7552 9.40588 14.7754 9.43982 14.7947 9.47377C14.8149 9.50863 14.8351 9.54442 14.8543 9.58111C14.8736 9.61598 14.8929 9.65176 14.9112 9.68754C14.9112 9.68846 14.9121 9.69029 14.9131 9.69121C14.9314 9.72699 14.9488 9.76277 14.9663 9.79947C14.9828 9.83342 14.9993 9.86736 15.0149 9.90223C15.0332 9.9426 15.0507 9.98296 15.0681 10.0243C15.0846 10.0628 15.1002 10.1004 15.1149 10.1389C15.1452 10.216 15.1736 10.294 15.2002 10.372C15.214 10.4114 15.2268 10.4509 15.2388 10.4912C15.2525 10.5353 15.2654 10.5784 15.2782 10.6224C15.2865 10.6518 15.2947 10.6821 15.3021 10.7114C15.3323 10.827 15.358 10.9436 15.38 11.0619C15.3865 11.0931 15.392 11.1243 15.3966 11.1555C15.403 11.1922 15.4094 11.2289 15.414 11.2665C15.4241 11.3344 15.4333 11.4032 15.4397 11.4729C15.4443 11.5105 15.4479 11.5491 15.4507 11.5876C15.4534 11.6188 15.4553 11.6509 15.4571 11.6821C15.4589 11.7151 15.4608 11.7473 15.4626 11.7803C15.4626 11.8096 15.4644 11.839 15.4654 11.8693C15.4663 11.9133 15.4672 11.9564 15.4672 12.0005Z" fill="#F2F2F2"/>
<path id="Vector_3" d="M14.4436 8.94347L13.584 9.20679C13.7225 8.94622 13.8785 8.70401 14.0482 8.48199C14.1537 8.59117 14.2537 8.70493 14.3501 8.82328C14.3813 8.86274 14.4134 8.9031 14.4436 8.94347Z" fill="#F2F2F2"/>
<path id="Vector_4" d="M7.19761 9.20679L6.33887 8.94347C6.36914 8.9031 6.40034 8.86274 6.43245 8.82328C6.46364 8.78383 6.49575 8.7453 6.5297 8.70677C6.56273 8.66823 6.59576 8.63062 6.6297 8.593C6.66457 8.55538 6.69851 8.51869 6.73429 8.48199C6.90311 8.70401 7.05908 8.94622 7.19761 9.20679Z" fill="#F2F2F2"/>
<path id="Vector_5" d="M7.26963 14.307L6.90998 14.8832L7.12008 15.7896C7.10816 15.8098 7.09715 15.83 7.08522 15.8502C7.08247 15.8474 7.07972 15.8456 7.07696 15.8428C7.03659 15.808 6.99623 15.7722 6.95769 15.7364C6.91824 15.7006 6.87879 15.6639 6.84117 15.6263C6.84117 15.6263 6.83842 15.6235 6.83751 15.6226L6.82833 15.6135C6.79255 15.5777 6.75677 15.5419 6.7219 15.5052C6.68429 15.4657 6.64667 15.4254 6.60997 15.3841C6.60722 15.3813 6.60447 15.3786 6.60172 15.3749C6.53658 15.3024 6.47419 15.2272 6.41364 15.1501C6.40079 15.1345 6.38886 15.1199 6.37694 15.1033C6.34482 15.063 6.31363 15.0217 6.28336 14.9804C6.25308 14.9391 6.22372 14.8969 6.19436 14.8547C6.16867 14.818 6.1439 14.7804 6.12005 14.7428C6.07142 14.6675 6.02555 14.5914 5.98059 14.5134C5.95857 14.474 5.93655 14.4345 5.91545 14.3951C5.89435 14.3556 5.87325 14.3152 5.85306 14.2758C5.83288 14.2354 5.81361 14.1941 5.79435 14.1538C5.77508 14.1125 5.75673 14.0721 5.73838 14.0299C5.72462 13.9987 5.71086 13.9666 5.6971 13.9345C5.68425 13.9042 5.67232 13.873 5.6604 13.8418C5.64847 13.8125 5.63746 13.7831 5.62645 13.7538C5.62186 13.7418 5.61819 13.7308 5.61452 13.7189C5.59617 13.6703 5.57966 13.6216 5.56406 13.5721C5.54388 13.5115 5.52553 13.4492 5.5081 13.3877C5.49525 13.3436 5.48333 13.2996 5.47232 13.2546C5.46222 13.2189 5.45397 13.1831 5.44571 13.1464C5.44112 13.128 5.43745 13.1088 5.43287 13.0895C5.43195 13.084 5.43011 13.0794 5.42919 13.0739C5.42277 13.0445 5.41727 13.0143 5.41084 12.9849C5.40167 12.939 5.39341 12.8932 5.38607 12.8473C5.37782 12.8014 5.37139 12.7555 5.36497 12.7097C5.35947 12.6757 5.3558 12.6409 5.35121 12.6069C5.35029 12.6023 5.35029 12.5987 5.35029 12.5941C5.34662 12.5693 5.34479 12.5436 5.34203 12.5188C5.33745 12.4812 5.33378 12.4436 5.33103 12.406V12.4023C5.32827 12.3638 5.32552 12.3253 5.32369 12.2867C5.32185 12.2546 5.32002 12.2225 5.3191 12.1904V12.1757C5.31726 12.1546 5.31726 12.1335 5.31726 12.1124C5.31543 12.0757 5.31543 12.0381 5.31543 12.0005C5.31543 11.9564 5.31635 11.9133 5.31726 11.8693C5.31818 11.8399 5.3191 11.8096 5.32002 11.7803C5.32185 11.7473 5.32277 11.7151 5.32552 11.6821C5.32736 11.6509 5.32919 11.6188 5.33194 11.5876C5.33194 11.5849 5.33286 11.5812 5.33286 11.5775C5.33837 11.5078 5.3457 11.4381 5.35396 11.3693C5.3558 11.3564 5.35763 11.3436 5.35947 11.3307C5.36405 11.2959 5.36864 11.2619 5.37415 11.227C5.38057 11.183 5.38791 11.1399 5.39616 11.0968C5.4035 11.0536 5.41176 11.0105 5.42094 10.9674C5.42094 10.9647 5.42186 10.9628 5.42186 10.961C5.43103 10.9197 5.43929 10.8793 5.44938 10.839C5.45947 10.7958 5.46956 10.7536 5.48057 10.7114C5.48883 10.6775 5.498 10.6445 5.5081 10.6105C5.5191 10.5701 5.53103 10.5307 5.54388 10.4912C5.5558 10.4509 5.56865 10.4114 5.58241 10.372C5.60902 10.294 5.63746 10.216 5.66774 10.1389C5.68242 10.1004 5.69801 10.0628 5.71453 10.0243C5.76315 9.91048 5.81453 9.79855 5.8705 9.68938C5.8705 9.68846 5.87141 9.68846 5.87141 9.68754C5.87233 9.68662 5.87233 9.68479 5.87325 9.68387C5.89068 9.64901 5.90995 9.61506 5.9283 9.58111C5.94756 9.54442 5.96775 9.50863 5.98793 9.47377C6.0072 9.43982 6.02738 9.40588 6.04757 9.37285C6.065 9.34441 6.08243 9.31597 6.09986 9.28844C6.11729 9.26 6.13564 9.23248 6.15399 9.20495C6.17234 9.17651 6.19069 9.14991 6.20996 9.12238C6.22831 9.09486 6.24757 9.06825 6.26684 9.04073C6.28611 9.01412 6.30537 8.98751 6.32556 8.96091L6.63016 9.53524L7.47148 9.79305C7.56873 10.0334 7.65313 10.2839 7.72286 10.5445L7.0733 10.0518L7.16596 10.7243L7.87516 11.2628C7.92103 11.55 7.95039 11.8454 7.96232 12.1473L7.29073 11.6381L7.3834 12.3115L7.95957 12.7491C7.9458 13.0748 7.91094 13.3932 7.85681 13.7015L7.36321 12.9473L7.22376 13.6125L7.71001 14.3547C7.63845 14.6143 7.55313 14.8648 7.45404 15.1043L7.26963 14.307Z" fill="#F2F2F2"/>
<path id="Vector_6" d="M13.0558 8.18381L12.7366 8.78384L12.9907 9.61139C12.865 9.91416 12.7604 10.2334 12.676 10.5656L12.1209 9.83434L12.0292 10.5068L12.5476 11.1894C12.4971 11.4995 12.465 11.8179 12.4531 12.1445L11.9035 11.4206L11.8118 12.0941L12.4659 12.9565C12.4843 13.2225 12.5164 13.484 12.5595 13.7391L11.8512 13.2748L11.9897 13.9391L12.7063 14.4088C12.7962 14.7409 12.909 15.0593 13.0402 15.3602L12.1531 15.1547L12.5127 15.7309L13.3146 15.9171C13.3458 15.9722 13.3779 16.0263 13.41 16.0795C13.3577 16.119 13.3036 16.1566 13.2494 16.1942C13.243 16.1988 13.2357 16.2034 13.2283 16.2089C13.1825 16.2401 13.1347 16.2704 13.088 16.3006C12.9705 16.374 12.8494 16.4428 12.7265 16.508C12.7017 16.5199 12.6778 16.5328 12.6531 16.5447C12.5962 16.5731 12.5384 16.6006 12.4797 16.6273C12.4173 16.6548 12.354 16.6823 12.2898 16.708C12.265 16.719 12.2393 16.7291 12.2136 16.7383C12.1108 16.7777 12.0063 16.8144 11.8998 16.8474C11.8604 16.8603 11.82 16.8722 11.7806 16.8832C11.7494 16.8924 11.7173 16.9007 11.6861 16.9089C11.5659 16.9401 11.4448 16.9676 11.3218 16.9906C11.2897 16.997 11.2567 17.0025 11.2237 17.008C11.1888 17.0135 11.1539 17.019 11.1191 17.0236C11.0851 17.0291 11.0512 17.0337 11.0172 17.0374C10.9484 17.0456 10.8796 17.053 10.8108 17.0585C10.7759 17.0612 10.7411 17.064 10.7062 17.0658C10.6723 17.0686 10.6392 17.0704 10.6053 17.0713C10.5778 17.0722 10.5502 17.0731 10.5218 17.0741C10.4778 17.075 10.4346 17.0759 10.3906 17.0759C10.3466 17.0759 10.3034 17.075 10.2594 17.0741C10.2319 17.0731 10.2034 17.0722 10.1759 17.0713C10.142 17.0713 10.1089 17.0686 10.075 17.0658C10.0401 17.064 10.0053 17.0612 9.97132 17.0585C9.90251 17.053 9.8337 17.0465 9.76489 17.0374C9.73002 17.0337 9.69608 17.0291 9.66213 17.0236C9.62727 17.019 9.5924 17.0135 9.55754 17.008C9.52451 17.0025 9.4924 16.997 9.45937 16.9906C9.35845 16.9722 9.25936 16.9502 9.16119 16.9254C9.1355 16.9199 9.11073 16.9135 9.08688 16.9071C8.81531 16.8346 8.55383 16.741 8.30153 16.6273C8.24373 16.6006 8.18593 16.5731 8.12813 16.5447C7.98042 16.4713 7.83637 16.3906 7.69692 16.3025C7.64829 16.2722 7.60058 16.241 7.55288 16.2089C7.54554 16.2043 7.53912 16.1997 7.53178 16.1942C7.47765 16.1566 7.42351 16.119 7.37122 16.0795C7.40333 16.0263 7.43544 15.9722 7.46663 15.9171L8.2685 15.7309L8.62815 15.1547L7.74096 15.3602C7.87216 15.0593 7.985 14.7409 8.07491 14.4088L8.79146 13.9391L8.92999 13.2748L8.22171 13.7391C8.26575 13.484 8.29694 13.2225 8.31529 12.9565L8.96944 12.0941L8.8777 11.4206L8.32814 12.1445C8.31713 11.8179 8.2841 11.4995 8.23455 11.1894L8.752 10.5068L8.66026 9.83434L8.10519 10.5656C8.02079 10.2334 7.91619 9.91416 7.79142 9.61139L8.04464 8.78384L7.72628 8.18381L7.48498 8.97192C7.34736 8.72237 7.19507 8.4875 7.02992 8.27097L7.02441 8.20216C7.08772 8.1462 7.15194 8.09115 7.218 8.03885C7.38223 7.90582 7.55471 7.78472 7.73453 7.67462C7.77123 7.6526 7.80701 7.63058 7.84371 7.60948C7.87674 7.59021 7.90977 7.57186 7.9428 7.55352C7.97583 7.53517 8.00886 7.51773 8.04189 7.5003C8.14189 7.44709 8.24373 7.39755 8.34832 7.35259C8.38318 7.33699 8.41805 7.32231 8.45383 7.30763C8.48869 7.29295 8.52355 7.27919 8.55934 7.26543C8.62998 7.23699 8.70246 7.2113 8.77494 7.18745C8.84742 7.16359 8.9199 7.14066 8.99421 7.11955C9.03091 7.10854 9.06853 7.09845 9.10523 7.08836C9.18046 7.06909 9.25569 7.05074 9.33184 7.03515C9.36946 7.02689 9.40708 7.01955 9.44561 7.01221C9.48414 7.00487 9.52268 6.99845 9.56121 6.99203C9.5869 6.98744 9.61259 6.98285 9.63828 6.9801C9.6603 6.97643 9.68232 6.97276 9.70342 6.97001C9.73278 6.96634 9.76122 6.96267 9.79058 6.959C9.8181 6.95624 9.84471 6.95349 9.87131 6.95074C9.90343 6.94707 9.93462 6.94432 9.96673 6.94157C9.98783 6.93973 10.0089 6.9379 10.03 6.93698C10.1493 6.92872 10.2695 6.92413 10.3906 6.92413C10.5117 6.92413 10.6319 6.92872 10.7512 6.93698C10.7723 6.9379 10.7934 6.93973 10.8145 6.94157C10.8466 6.94432 10.8778 6.94707 10.9099 6.95074C10.9374 6.95349 10.964 6.95624 10.9906 6.959C11.02 6.96267 11.0484 6.96634 11.0778 6.97001C11.0998 6.97276 11.1209 6.97643 11.1429 6.9801C11.1686 6.98377 11.1943 6.98744 11.22 6.99203C11.2585 6.99845 11.2971 7.00487 11.3356 7.01221C11.3741 7.01955 11.4117 7.02689 11.4494 7.03515C11.4879 7.0434 11.5255 7.05166 11.5631 7.06084C11.6007 7.06909 11.6384 7.07919 11.676 7.08836C11.7319 7.10304 11.787 7.11864 11.842 7.13515C11.8971 7.15166 11.9521 7.1691 12.0063 7.18745C12.043 7.19937 12.0787 7.21222 12.1145 7.22506C12.1512 7.23791 12.187 7.25167 12.2219 7.26543C12.2576 7.27919 12.2925 7.29295 12.3283 7.30763C12.3632 7.32231 12.398 7.33699 12.4329 7.35259C12.4677 7.36819 12.5017 7.38378 12.5366 7.39938C12.6393 7.44801 12.7402 7.49938 12.8393 7.55352C12.9384 7.60856 13.0357 7.66636 13.1302 7.72692C13.1623 7.7471 13.1935 7.7682 13.2247 7.7893C13.2256 7.79022 13.2265 7.79114 13.2283 7.79114C13.4137 7.91683 13.5898 8.05445 13.7568 8.20216L13.7513 8.27097C13.5861 8.4875 13.4348 8.72237 13.2971 8.97192L13.0558 8.18381Z" fill="#F2F2F2"/>
</g>
</g>
</svg>
