<svg width="53" height="62" viewBox="0 0 53 62" fill="none" xmlns="http://www.w3.org/2000/svg">
<path d="M26.5 61.9976L0 46.497V15.5006L26.5 0L53 15.5006V46.4994L26.5 62V61.9976ZM2.33954 45.1318L26.5 59.2625L50.6605 45.1318V16.8682L26.5 2.73749L2.33954 16.8682V45.1318Z" fill="#9ECB3B"/>
<path d="M39.4429 31.0012C39.4429 31.1648 39.4406 31.3283 39.4336 31.4918C39.4336 31.5748 39.4266 31.6578 39.4219 31.7407C39.4172 31.8426 39.4102 31.9398 39.4032 32.0393C39.3961 32.1389 39.3868 32.2408 39.3751 32.3403C39.3681 32.4162 39.3611 32.492 39.3517 32.5679C39.34 32.6556 39.3306 32.7456 39.3166 32.8333C39.3002 32.9518 39.2838 33.0703 39.2628 33.1865C39.2441 33.3074 39.223 33.4259 39.1996 33.5444C39.1833 33.6202 39.1692 33.6984 39.1528 33.7743C39.1388 33.8359 39.1248 33.8999 39.1107 33.9615C39.0897 34.0563 39.0663 34.1488 39.0429 34.2412C39.0148 34.3573 38.9844 34.4711 38.9516 34.5849C38.8627 34.9048 38.7598 35.22 38.6498 35.5305C38.6218 35.6064 38.5937 35.6822 38.5633 35.7581C38.5329 35.8386 38.5001 35.9169 38.4697 35.9974C38.4346 36.0804 38.3995 36.1634 38.3644 36.2439C38.3176 36.353 38.2708 36.4572 38.2217 36.5639C38.1726 36.6682 38.1234 36.7748 38.0696 36.8791C38.0182 36.981 37.9667 37.0853 37.9129 37.1872C37.1525 38.6212 36.1372 39.8939 34.9276 40.9463C34.8972 40.8941 34.8691 40.842 34.8387 40.7898L35.3745 38.4482L34.4597 36.9597L33.9871 39.0194C33.7368 38.4007 33.5169 37.7537 33.3344 37.083L34.5744 35.1655L34.2211 33.4472L32.9601 35.3954C32.8244 34.5991 32.7331 33.7766 32.698 32.9352L34.1673 31.8047L34.4036 30.065L32.6934 31.3804C32.7214 30.6007 32.7986 29.8375 32.9133 29.0957L34.7217 27.7044L34.958 25.9671L33.3016 27.2398C33.4794 26.5667 33.6947 25.9197 33.9427 25.2987L36.088 24.6327L36.8671 23.149C36.9677 23.2865 37.066 23.424 37.1619 23.5662C37.204 23.6254 37.2438 23.6847 37.2812 23.7463C37.3841 23.898 37.4801 24.0544 37.576 24.2132C37.6275 24.2985 37.6789 24.3862 37.7281 24.4739C37.7795 24.564 37.831 24.6564 37.8801 24.7512C37.9293 24.8413 37.9784 24.9337 38.0252 25.0262C38.0252 25.0285 38.0275 25.0333 38.0299 25.0356C38.0766 25.1281 38.1211 25.2205 38.1656 25.3153C38.2077 25.403 38.2498 25.4907 38.2895 25.5808C38.3363 25.685 38.3808 25.7893 38.4252 25.896C38.4674 25.9955 38.5071 26.0927 38.5446 26.1923C38.6218 26.3913 38.6943 26.5928 38.7621 26.7943C38.7972 26.8962 38.83 26.9981 38.8604 27.1024C38.8955 27.2161 38.9282 27.3275 38.961 27.4413C38.9821 27.5172 39.0031 27.5954 39.0218 27.6712C39.099 27.9698 39.1645 28.2708 39.2207 28.5766C39.2371 28.6572 39.2511 28.7378 39.2628 28.8183C39.2792 28.9132 39.2955 29.008 39.3072 29.1051C39.333 29.2805 39.3564 29.4583 39.3728 29.6384C39.3844 29.7356 39.3938 29.8351 39.4008 29.9347C39.4079 30.0153 39.4125 30.0982 39.4172 30.1788C39.4219 30.2641 39.4266 30.3471 39.4312 30.4324C39.4312 30.5082 39.4359 30.5841 39.4383 30.6623C39.4406 30.7761 39.4429 30.8875 39.4429 31.0012Z" fill="#9ECB3B"/>
<path d="M36.8318 23.104L34.6396 23.7842C34.9929 23.1111 35.3906 22.4854 35.8235 21.9118C36.0925 22.1938 36.3475 22.4877 36.5932 22.7935C36.6727 22.8954 36.7546 22.9997 36.8318 23.104Z" fill="#9ECB3B"/>
<path d="M18.3568 23.7842L16.167 23.104C16.2442 22.9997 16.3237 22.8954 16.4056 22.7935C16.4852 22.6916 16.5671 22.592 16.6536 22.4925C16.7378 22.3929 16.8221 22.2958 16.9086 22.1986C16.9975 22.1014 17.0841 22.0066 17.1753 21.9118C17.6058 22.4854 18.0035 23.1111 18.3568 23.7842Z" fill="#9ECB3B"/>
<path d="M18.5389 36.9597L17.6218 38.4482L18.1575 40.7898C18.1271 40.842 18.0991 40.8941 18.0686 40.9463C18.0616 40.9391 18.0546 40.9344 18.0476 40.9273C17.9446 40.8372 17.8417 40.7448 17.7434 40.6524C17.6428 40.5599 17.5422 40.4651 17.4463 40.368C17.4463 40.368 17.4393 40.3608 17.437 40.3585L17.4136 40.3348C17.3223 40.2423 17.2311 40.1499 17.1422 40.0551C17.0463 39.9532 16.9503 39.8489 16.8568 39.7422C16.8497 39.7351 16.8427 39.728 16.8357 39.7185C16.6696 39.5313 16.5105 39.3369 16.3561 39.1379C16.3233 39.0976 16.2929 39.0596 16.2625 39.017C16.1806 38.9127 16.1011 38.806 16.0239 38.6994C15.9467 38.5927 15.8718 38.4837 15.7969 38.3747C15.7314 38.2799 15.6683 38.1827 15.6074 38.0855C15.4834 37.8912 15.3665 37.6945 15.2518 37.493C15.1957 37.3911 15.1395 37.2892 15.0857 37.1872C15.0319 37.0853 14.9781 36.981 14.9266 36.8791C14.8752 36.7748 14.826 36.6682 14.7769 36.5639C14.7278 36.4572 14.681 36.353 14.6342 36.2439C14.5991 36.1634 14.564 36.0804 14.5289 35.9974C14.4962 35.9192 14.4657 35.8386 14.4353 35.7581C14.4049 35.6822 14.3768 35.6064 14.3488 35.5305C14.3371 35.4997 14.3277 35.4713 14.3184 35.4405C14.2716 35.3148 14.2295 35.1892 14.1897 35.0612C14.1382 34.9048 14.0914 34.7437 14.047 34.5849C14.0142 34.4711 13.9838 34.3573 13.9557 34.2412C13.93 34.1488 13.9089 34.0563 13.8879 33.9615C13.8762 33.9141 13.8668 33.8643 13.8551 33.8146C13.8528 33.8003 13.8481 33.7885 13.8458 33.7743C13.8294 33.6984 13.8153 33.6202 13.799 33.5444C13.7756 33.4259 13.7545 33.3074 13.7358 33.1889C13.7148 33.0703 13.6984 32.9518 13.682 32.8333C13.668 32.7456 13.6586 32.6556 13.6469 32.5679C13.6446 32.556 13.6446 32.5465 13.6446 32.5347C13.6352 32.4707 13.6305 32.4043 13.6235 32.3403C13.6118 32.2432 13.6025 32.146 13.5954 32.0488V32.0393C13.5884 31.9398 13.5814 31.8403 13.5767 31.7407C13.572 31.6578 13.5674 31.5748 13.565 31.4918V31.4539C13.5603 31.3994 13.5603 31.3449 13.5603 31.2904C13.5557 31.1956 13.5557 31.0984 13.5557 31.0012C13.5557 30.8875 13.558 30.7761 13.5603 30.6623C13.5627 30.5865 13.565 30.5082 13.5674 30.4324C13.572 30.3471 13.5744 30.2641 13.5814 30.1788C13.5861 30.0982 13.5908 30.0153 13.5978 29.9347C13.5978 29.9276 13.6001 29.9181 13.6001 29.9086C13.6142 29.7285 13.6329 29.5483 13.6539 29.3706C13.6586 29.3374 13.6633 29.3042 13.668 29.271C13.6797 29.181 13.6914 29.0933 13.7054 29.0032C13.7218 28.8895 13.7405 28.7781 13.7615 28.6667C13.7803 28.5553 13.8013 28.4439 13.8247 28.3325C13.8247 28.3254 13.8271 28.3206 13.8271 28.3159C13.8504 28.2092 13.8715 28.1049 13.8972 28.0007C13.923 27.8893 13.9487 27.7802 13.9768 27.6712C13.9978 27.5835 14.0212 27.4982 14.047 27.4105C14.075 27.3062 14.1055 27.2043 14.1382 27.1024C14.1686 26.9981 14.2014 26.8962 14.2365 26.7943C14.3043 26.5928 14.3768 26.3913 14.454 26.1923C14.4915 26.0927 14.5312 25.9955 14.5734 25.896C14.6974 25.6021 14.8284 25.3129 14.9711 25.0309C14.9711 25.0285 14.9734 25.0285 14.9734 25.0262C14.9758 25.0238 14.9758 25.019 14.9781 25.0167C15.0226 24.9266 15.0717 24.8389 15.1185 24.7512C15.1676 24.6564 15.2191 24.564 15.2705 24.4739C15.3197 24.3862 15.3711 24.2985 15.4226 24.2132C15.4671 24.1397 15.5115 24.0663 15.556 23.9952C15.6004 23.9217 15.6472 23.8506 15.694 23.7795C15.7408 23.706 15.7876 23.6373 15.8367 23.5662C15.8835 23.4951 15.9326 23.4263 15.9818 23.3552C16.0309 23.2865 16.08 23.2178 16.1315 23.149L16.9082 24.6327L19.0536 25.2987C19.3016 25.9197 19.5168 26.5667 19.6946 27.2398L18.0382 25.9671L18.2745 27.7044L20.083 29.0957C20.2 29.8375 20.2748 30.6007 20.3052 31.3804L18.5927 30.065L18.829 31.8047L20.2982 32.9352C20.2631 33.7766 20.1742 34.5991 20.0362 35.3954L18.7775 33.4472L18.4219 35.1655L19.6619 37.083C19.4794 37.7537 19.2618 38.4007 19.0091 39.0194L18.5389 36.9597Z" fill="#9ECB3B"/>
<path d="M33.2942 21.1415L32.4801 22.6916L33.1281 24.8294C32.8076 25.6116 32.5409 26.4364 32.3256 27.2944L30.9102 25.4054L30.6763 27.1427L31.9981 28.906C31.8694 29.7071 31.7876 30.5296 31.7571 31.3733L30.3558 29.5033L30.1218 31.243L31.7899 33.4709C31.8367 34.1582 31.9186 34.8337 32.0285 35.4926L30.2224 34.2933L30.5757 36.0093L32.4029 37.2228C32.6321 38.0808 32.9199 38.9032 33.2544 39.6806L30.9921 39.1497L31.9092 40.6381L33.954 41.1193C34.0335 41.2615 34.1154 41.4013 34.1973 41.5388C34.0639 41.6407 33.9259 41.7379 33.7879 41.835C33.7715 41.8469 33.7528 41.8587 33.7341 41.873C33.6171 41.9536 33.4954 42.0318 33.3761 42.11C33.0766 42.2996 32.7678 42.4773 32.4543 42.6456C32.3912 42.6764 32.3303 42.7096 32.2672 42.7404C32.1221 42.8139 31.9747 42.885 31.825 42.9537C31.6659 43.0248 31.5045 43.096 31.3407 43.1623C31.2775 43.1908 31.212 43.2168 31.1465 43.2405C30.8845 43.3424 30.6178 43.4373 30.3464 43.5226C30.2458 43.5558 30.1429 43.5866 30.0423 43.615C29.9627 43.6387 29.8808 43.66 29.8013 43.6814C29.4948 43.762 29.186 43.8331 28.8725 43.8923C28.7906 43.9089 28.7064 43.9231 28.6222 43.9373C28.5333 43.9516 28.4443 43.9658 28.3554 43.9776C28.2689 43.9919 28.1823 44.0037 28.0958 44.0132C27.9203 44.0345 27.7448 44.0535 27.5694 44.0677C27.4805 44.0748 27.3916 44.0819 27.3027 44.0867C27.2161 44.0938 27.1319 44.0985 27.0453 44.1009C26.9751 44.1033 26.9049 44.1056 26.8324 44.108C26.7201 44.1104 26.6101 44.1127 26.4978 44.1127C26.3855 44.1127 26.2756 44.1104 26.1633 44.108C26.0931 44.1056 26.0206 44.1033 25.9504 44.1009C25.8638 44.1009 25.7796 44.0938 25.693 44.0867C25.6041 44.0819 25.5152 44.0748 25.4287 44.0677C25.2532 44.0535 25.0777 44.0369 24.9023 44.0132C24.8134 44.0037 24.7268 43.9919 24.6402 43.9776C24.5513 43.9658 24.4624 43.9516 24.3735 43.9373C24.2893 43.9231 24.2074 43.9089 24.1232 43.8923C23.8659 43.8449 23.6132 43.788 23.3629 43.724C23.2974 43.7098 23.2342 43.6932 23.1734 43.6766C22.4809 43.4894 21.8141 43.2476 21.1707 42.9537C21.0233 42.885 20.8759 42.8139 20.7285 42.7404C20.3519 42.5508 19.9846 42.3423 19.629 42.1147C19.505 42.0365 19.3833 41.9559 19.2616 41.873C19.2429 41.8611 19.2266 41.8493 19.2078 41.835C19.0698 41.7379 18.9318 41.6407 18.7984 41.5388C18.8803 41.4013 18.9622 41.2615 19.0417 41.1193L21.0865 40.6381L22.0036 39.1497L19.7413 39.6806C20.0758 38.9032 20.3636 38.0808 20.5928 37.2228L22.42 36.0093L22.7733 34.2933L20.9672 35.4926C21.0795 34.8337 21.159 34.1582 21.2058 33.4709L22.8739 31.243L22.6399 29.5033L21.2386 31.3733C21.2105 30.5296 21.1263 29.7071 20.9999 28.906L22.3194 27.1427L22.0855 25.4054L20.6701 27.2944C20.4548 26.4364 20.1881 25.6116 19.8699 24.8294L20.5156 22.6916L19.7038 21.1415L19.0885 23.1775C18.7376 22.5328 18.3492 21.926 17.9281 21.3667L17.9141 21.1889C18.0755 21.0443 18.2393 20.9021 18.4077 20.767C18.8265 20.4234 19.2663 20.1105 19.7249 19.8261C19.8185 19.7692 19.9097 19.7123 20.0033 19.6578C20.0875 19.6081 20.1717 19.5606 20.2559 19.5132C20.3402 19.4658 20.4244 19.4208 20.5086 19.3758C20.7636 19.2383 21.0233 19.1103 21.29 18.9942C21.3789 18.9539 21.4678 18.916 21.5591 18.8781C21.648 18.8401 21.7369 18.8046 21.8281 18.769C22.0083 18.6956 22.1931 18.6292 22.3779 18.5676C22.5627 18.5059 22.7476 18.4467 22.9371 18.3922C23.0306 18.3637 23.1266 18.3377 23.2202 18.3116C23.412 18.2618 23.6038 18.2144 23.798 18.1741C23.8939 18.1528 23.9899 18.1338 24.0881 18.1149C24.1864 18.0959 24.2846 18.0793 24.3829 18.0627C24.4484 18.0509 24.5139 18.039 24.5794 18.0319C24.6356 18.0224 24.6917 18.013 24.7455 18.0059C24.8204 17.9964 24.8929 17.9869 24.9678 17.9774C25.038 17.9703 25.1058 17.9632 25.1737 17.9561C25.2556 17.9466 25.3351 17.9395 25.417 17.9324C25.4708 17.9276 25.5246 17.9229 25.5784 17.9205C25.8825 17.8992 26.189 17.8873 26.4978 17.8873C26.8067 17.8873 27.1132 17.8992 27.4173 17.9205C27.4711 17.9229 27.5249 17.9276 27.5787 17.9324C27.6606 17.9395 27.7401 17.9466 27.822 17.9561C27.8922 17.9632 27.9601 17.9703 28.0279 17.9774C28.1028 17.9869 28.1753 17.9964 28.2502 18.0059C28.3063 18.013 28.3601 18.0224 28.4163 18.0319C28.4818 18.0414 28.5473 18.0509 28.6128 18.0627C28.7111 18.0793 28.8093 18.0959 28.9076 18.1149C29.0058 18.1338 29.1018 18.1528 29.1977 18.1741C29.2959 18.1955 29.3919 18.2168 29.4878 18.2405C29.5837 18.2618 29.6796 18.2879 29.7755 18.3116C29.9183 18.3495 30.0586 18.3898 30.199 18.4325C30.3394 18.4751 30.4798 18.5202 30.6178 18.5676C30.7114 18.5984 30.8026 18.6316 30.8939 18.6647C30.9874 18.6979 31.0787 18.7335 31.1676 18.769C31.2588 18.8046 31.3477 18.8401 31.439 18.8781C31.5279 18.916 31.6168 18.9539 31.7057 18.9942C31.7946 19.0345 31.8811 19.0748 31.97 19.1151C32.2321 19.2407 32.4894 19.3734 32.7421 19.5132C32.9948 19.6555 33.2428 19.8048 33.4837 19.9612C33.5656 20.0133 33.6452 20.0679 33.7247 20.1224C33.727 20.1247 33.7294 20.1271 33.7341 20.1271C34.2066 20.4518 34.6558 20.8073 35.0816 21.1889L35.0676 21.3667C34.6465 21.926 34.2605 22.5328 33.9095 23.1775L33.2942 21.1415Z" fill="#9ECB3B"/>
</svg>
