<svg width="53" height="62" viewBox="0 0 53 62" fill="none" xmlns="http://www.w3.org/2000/svg">
<path d="M26.5 0L0 15.5006V46.4994L26.5 62L53 46.4994V15.5006L26.5 0ZM36.5928 22.7935C36.6723 22.8954 36.7542 22.9997 36.8314 23.1039L34.6393 23.7842C34.9925 23.1111 35.3903 22.4853 35.8231 21.9118C36.0921 22.1938 36.3471 22.4877 36.5928 22.7935ZM16.4049 22.7935C16.4844 22.6915 16.5663 22.592 16.6529 22.4925C16.7371 22.3929 16.8213 22.2957 16.9079 22.1986C16.9968 22.1014 17.0833 22.0066 17.1746 21.9118C17.6051 22.4853 18.0028 23.1111 18.3561 23.7842L16.1662 23.1039C16.2434 22.9997 16.323 22.8954 16.4049 22.7935ZM18.1572 40.7898C18.1268 40.8419 18.0987 40.8941 18.0683 40.9462C18.0613 40.9391 18.0542 40.9344 18.0472 40.9273C17.9443 40.8372 17.8414 40.7448 17.7431 40.6523C17.6425 40.5599 17.5419 40.4651 17.446 40.3679L17.4132 40.3347C17.322 40.2423 17.2307 40.1499 17.1418 40.055C17.0459 39.9531 16.95 39.8489 16.8564 39.7422C16.8494 39.7351 16.8424 39.728 16.8354 39.7185C16.6692 39.5312 16.5102 39.3369 16.3557 39.1378C16.323 39.0975 16.2926 39.0596 16.2622 39.0169C16.1803 38.9126 16.1007 38.806 16.0235 38.6993C15.9463 38.5927 15.8715 38.4837 15.7966 38.3746C15.7311 38.2798 15.6679 38.1827 15.6071 38.0855C15.4831 37.8911 15.3661 37.6944 15.2515 37.4929C15.1953 37.391 15.1392 37.2891 15.0854 37.1872C15.0316 37.0853 14.9778 36.981 14.9263 36.8791C14.8748 36.7748 14.8257 36.6681 14.7766 36.5639C14.7274 36.4572 14.6806 36.3529 14.6338 36.2439C14.5987 36.1633 14.5637 36.0804 14.5286 35.9974C14.4958 35.9192 14.4654 35.8386 14.435 35.758C14.4046 35.6822 14.3765 35.6063 14.3484 35.5305C14.3367 35.4997 14.3274 35.4712 14.318 35.4404C14.2712 35.3148 14.2291 35.1892 14.1893 35.0612C14.1379 34.9048 14.0911 34.7436 14.0466 34.5848C14.0139 34.471 13.9834 34.3573 13.9554 34.2411C13.9296 34.1487 13.9086 34.0563 13.8875 33.9615C13.8758 33.9141 13.8665 33.8643 13.8548 33.8145C13.8524 33.8003 13.8478 33.7884 13.8454 33.7742C13.829 33.6984 13.815 33.6202 13.7986 33.5443C13.7752 33.4258 13.7542 33.3073 13.7355 33.1888C13.7144 33.0703 13.698 32.9518 13.6816 32.8333C13.6676 32.7456 13.6582 32.6555 13.6466 32.5678C13.6442 32.556 13.6442 32.5465 13.6442 32.5347C13.6349 32.4707 13.6302 32.4043 13.6232 32.3403C13.6115 32.2431 13.6021 32.146 13.5951 32.0488V32.0393C13.5881 31.9398 13.581 31.8402 13.5764 31.7407C13.5717 31.6577 13.567 31.5748 13.5647 31.4918V31.4539C13.56 31.3994 13.56 31.3449 13.56 31.2903C13.5553 31.1955 13.5553 31.0984 13.5553 31.0012C13.5553 30.8874 13.5576 30.776 13.56 30.6623C13.5623 30.5864 13.5647 30.5082 13.567 30.4324C13.5717 30.347 13.574 30.2641 13.581 30.1788C13.5857 30.0982 13.5904 30.0152 13.5974 29.9346C13.5974 29.9275 13.5974 29.918 13.5974 29.9086C13.6115 29.7284 13.6302 29.5483 13.6512 29.3705C13.6559 29.3374 13.6606 29.3042 13.6653 29.271C13.677 29.1809 13.6887 29.0932 13.7027 29.0032C13.7191 28.8894 13.7378 28.778 13.7589 28.6666C13.7776 28.5552 13.7986 28.4438 13.822 28.3324C13.822 28.3253 13.8244 28.3206 13.8244 28.3158C13.8478 28.2092 13.8688 28.1049 13.8945 28.0006C13.9203 27.8892 13.946 27.7802 13.9741 27.6712C13.9951 27.5835 14.0185 27.4981 14.0443 27.4105C14.0724 27.3062 14.1028 27.2043 14.1355 27.1023C14.1659 26.9981 14.1987 26.8961 14.2338 26.7942C14.3016 26.5928 14.3741 26.3913 14.4514 26.1922C14.4888 26.0927 14.5286 25.9955 14.5707 25.8959C14.6947 25.602 14.8257 25.3129 14.9684 25.0308C14.9684 25.0285 14.9707 25.0285 14.9707 25.0261C14.9731 25.0237 14.9731 25.019 14.9754 25.0166C15.0199 24.9266 15.069 24.8389 15.1158 24.7512C15.1649 24.6564 15.2164 24.5639 15.2679 24.4739C15.317 24.3862 15.3685 24.2985 15.4199 24.2132C15.4644 24.1397 15.5088 24.0662 15.5533 23.9951C15.5977 23.9216 15.6445 23.8505 15.6913 23.7794C15.7381 23.706 15.7849 23.6372 15.834 23.5661C15.8808 23.495 15.9299 23.4263 15.9791 23.3552C16.0282 23.2864 16.0773 23.2177 16.1288 23.149L16.9055 24.6327L19.0509 25.2987C19.2989 25.9196 19.5141 26.5667 19.6919 27.2398L18.0355 25.967L18.2718 27.7043L20.0803 29.0956C20.1973 29.8375 20.2721 30.6006 20.3026 31.3804L18.59 30.065L18.8263 31.8047L20.2955 32.9352C20.2604 33.7766 20.1715 34.599 20.0335 35.3954L18.7748 33.4471L18.4192 35.1655L19.6592 37.0829C19.4767 37.7537 19.2591 38.4007 19.0064 39.0193L18.5362 36.9597L17.6191 38.4481L18.1549 40.7898H18.1572ZM33.7877 41.835C33.7713 41.8469 33.7526 41.8587 33.7339 41.8729C33.6169 41.9535 33.4952 42.0317 33.3759 42.1099C33.0765 42.2996 32.7676 42.4773 32.4541 42.6456C32.391 42.6764 32.3301 42.7096 32.267 42.7404C32.1219 42.8139 31.9745 42.885 31.8248 42.9537C31.6657 43.0248 31.5043 43.0959 31.3405 43.1623C31.2773 43.1907 31.2118 43.2168 31.1463 43.2405C30.8843 43.3424 30.6176 43.4372 30.3462 43.5225C30.2456 43.5557 30.1427 43.5865 30.0421 43.615C29.9625 43.6387 29.8806 43.66 29.8011 43.6813C29.4946 43.7619 29.1858 43.833 28.8723 43.8923C28.7904 43.9089 28.7062 43.9231 28.622 43.9373C28.5331 43.9515 28.4442 43.9657 28.3553 43.9776C28.2687 43.9918 28.1821 44.0037 28.0956 44.0131C27.9201 44.0345 27.7446 44.0534 27.5692 44.0677C27.4803 44.0748 27.3914 44.0819 27.3025 44.0866C27.2159 44.0937 27.1317 44.0985 27.0451 44.1008C26.9749 44.1032 26.9047 44.1056 26.8322 44.108C26.7199 44.1103 26.61 44.1127 26.4977 44.1127C26.3854 44.1127 26.2754 44.1103 26.1631 44.108C26.0929 44.1056 26.0204 44.1032 25.9502 44.1008C25.8636 44.0985 25.7794 44.0937 25.6929 44.0866C25.604 44.0819 25.5151 44.0748 25.4285 44.0677C25.253 44.0534 25.0776 44.0368 24.9021 44.0131C24.8132 44.0037 24.7266 43.9918 24.6401 43.9776C24.5512 43.9657 24.4623 43.9515 24.3734 43.9373C24.2891 43.9231 24.2072 43.9089 24.123 43.8923C23.8657 43.8449 23.613 43.788 23.3627 43.724C23.2972 43.7098 23.234 43.6932 23.1732 43.6766C22.4807 43.4894 21.8139 43.2476 21.1705 42.9537C21.0231 42.885 20.8757 42.8139 20.7284 42.7404C20.3517 42.5508 19.9844 42.3422 19.6288 42.1147C19.5048 42.0365 19.3831 41.9559 19.2615 41.8729C19.2427 41.8611 19.2264 41.8492 19.2076 41.835C19.0696 41.7378 18.9316 41.6407 18.7982 41.5387C18.8801 41.4013 18.962 41.2614 19.0415 41.1192L21.0863 40.6381L22.0034 39.1497L19.7411 39.6806C20.0756 38.9032 20.3634 38.0807 20.5927 37.2228L22.4198 36.0093L22.7731 34.2933L20.967 35.4926C21.0793 34.8337 21.1588 34.1582 21.2056 33.4709L22.8737 31.2429L22.6398 29.5033L21.2384 31.3733C21.2103 30.5295 21.1261 29.7071 20.9997 28.906L22.3192 27.1426L22.0853 25.4053L20.6699 27.2943C20.4546 26.4363 20.1879 25.6115 19.8697 24.8294L20.5155 22.6915L19.7036 21.1415L19.0883 23.1774C18.7374 22.5327 18.349 21.926 17.9279 21.3666L17.9139 21.1889C18.0753 21.0443 18.2391 20.9021 18.4075 20.767C18.8263 20.4233 19.2661 20.1105 19.7247 19.8261C19.8183 19.7692 19.9095 19.7123 20.0031 19.6578C20.0873 19.608 20.1715 19.5606 20.2558 19.5132C20.34 19.4658 20.4242 19.4208 20.5084 19.3757C20.7634 19.2383 21.0231 19.1103 21.2898 18.9942C21.3787 18.9539 21.4676 18.9159 21.5589 18.878C21.6478 18.8401 21.7367 18.8045 21.8279 18.769C22.0081 18.6955 22.1929 18.6292 22.3777 18.5675C22.5626 18.5059 22.7474 18.4467 22.9369 18.3921C23.0305 18.3637 23.1264 18.3376 23.22 18.3116C23.4118 18.2618 23.6036 18.2144 23.7978 18.1741C23.8938 18.1528 23.9897 18.1338 24.0879 18.1148C24.1862 18.0959 24.2845 18.0793 24.3827 18.0627C24.4482 18.0508 24.5137 18.039 24.5792 18.0319C24.6354 18.0224 24.6915 18.0129 24.7453 18.0058C24.8202 17.9963 24.8927 17.9868 24.9676 17.9774C25.0378 17.9703 25.1056 17.9631 25.1735 17.956C25.2554 17.9466 25.3349 17.9394 25.4168 17.9323C25.4706 17.9276 25.5244 17.9229 25.5782 17.9205C25.8824 17.8992 26.1888 17.8873 26.4977 17.8873C26.8065 17.8873 27.113 17.8992 27.4171 17.9205C27.4709 17.9229 27.5247 17.9276 27.5785 17.9323C27.6604 17.9394 27.74 17.9466 27.8218 17.956C27.892 17.9631 27.9599 17.9703 28.0277 17.9774C28.1026 17.9868 28.1751 17.9963 28.25 18.0058C28.3061 18.0129 28.3599 18.0224 28.4161 18.0319C28.4816 18.0414 28.5471 18.0508 28.6126 18.0627C28.7109 18.0793 28.8091 18.0959 28.9074 18.1148C29.0057 18.1338 29.1016 18.1528 29.1975 18.1741C29.2958 18.1954 29.3917 18.2168 29.4876 18.2405C29.5835 18.2618 29.6794 18.2879 29.7754 18.3116C29.9181 18.3495 30.0584 18.3898 30.1988 18.4324C30.3392 18.4751 30.4796 18.5201 30.6176 18.5675C30.7112 18.5983 30.8024 18.6315 30.8937 18.6647C30.9872 18.6979 31.0785 18.7334 31.1674 18.769C31.2586 18.8045 31.3475 18.8401 31.4388 18.878C31.5277 18.9159 31.6166 18.9539 31.7055 18.9942C31.7944 19.0344 31.881 19.0747 31.9699 19.115C32.2319 19.2406 32.4892 19.3734 32.7419 19.5132C32.9946 19.6554 33.2426 19.8047 33.4835 19.9612C33.5654 20.0133 33.645 20.0678 33.7245 20.1223C33.7268 20.1223 33.7292 20.1271 33.7339 20.1271C34.2065 20.4518 34.6556 20.8073 35.0814 21.1889L35.0674 21.3666C34.6463 21.926 34.2603 22.5327 33.9093 23.1774L33.294 21.1415L32.4799 22.6915L33.1279 24.8294C32.8074 25.6115 32.5407 26.4363 32.3255 27.2943L30.91 25.4053L30.6761 27.1426L31.9979 28.906C31.8693 29.7071 31.7874 30.5295 31.757 31.3733L30.3556 29.5033L30.1216 31.2429L31.7897 33.4709C31.8365 34.1582 31.9184 34.8337 32.0283 35.4926L30.2222 34.2933L30.5755 36.0093L32.4027 37.2228C32.6319 38.0807 32.9197 38.9032 33.2543 39.6806L30.9919 39.1497L31.909 40.6381L33.9538 41.1192C34.0333 41.2614 34.1152 41.4013 34.1971 41.5387C34.0637 41.6407 33.9257 41.7378 33.7877 41.835ZM39.433 31.4918C39.4307 31.5748 39.426 31.6577 39.4213 31.7407C39.4166 31.8426 39.4096 31.9398 39.4026 32.0393C39.3956 32.1388 39.3862 32.2408 39.3745 32.3403C39.3675 32.4161 39.3605 32.492 39.3511 32.5678C39.3394 32.6555 39.3301 32.7456 39.316 32.8333C39.2996 32.9518 39.2833 33.0703 39.2622 33.1864C39.2435 33.3073 39.2224 33.4258 39.199 33.5443C39.1827 33.6202 39.1686 33.6984 39.1523 33.7742C39.1382 33.8358 39.1242 33.8998 39.1101 33.9615C39.0891 34.0563 39.0657 34.1487 39.0423 34.2411C39.0142 34.3573 38.9838 34.471 38.951 34.5848C38.8621 34.9048 38.7592 35.22 38.6492 35.5305C38.6212 35.6063 38.5931 35.6822 38.5627 35.758C38.5323 35.8386 38.4995 35.9168 38.4691 35.9974C38.434 36.0804 38.3989 36.1633 38.3638 36.2439C38.317 36.3529 38.2702 36.4572 38.2211 36.5639C38.172 36.6681 38.1229 36.7748 38.069 36.8791C38.0176 36.981 37.9661 37.0853 37.9123 37.1872C37.1519 38.6211 36.1366 39.8939 34.927 40.9462C34.8966 40.8941 34.8685 40.8419 34.8381 40.7898L35.3739 38.4481L34.4591 36.9597L33.9865 39.0193C33.7362 38.4007 33.5163 37.7537 33.3338 37.0829L34.5738 35.1655L34.2205 33.4471L32.9595 35.3954C32.8238 34.599 32.7325 33.7766 32.6974 32.9352L34.1667 31.8047L34.403 30.065L32.6928 31.3804C32.7208 30.6006 32.798 29.8375 32.9127 29.0956L34.7212 27.7043L34.9574 25.967L33.3011 27.2398C33.4789 26.5667 33.6941 25.9196 33.9421 25.2987L36.0875 24.6327L36.8665 23.149C36.9671 23.2864 37.0654 23.4239 37.1613 23.5661C37.2034 23.6254 37.2432 23.6846 37.2806 23.7462C37.3836 23.8979 37.4795 24.0544 37.5754 24.2132C37.6269 24.2985 37.6783 24.3862 37.7275 24.4739C37.7789 24.5639 37.8304 24.6564 37.8795 24.7512C37.9287 24.8412 37.9778 24.9337 38.0246 25.0261C38.0246 25.0285 38.0269 25.0332 38.0293 25.0356C38.0761 25.128 38.1205 25.2205 38.165 25.3153C38.2071 25.403 38.2492 25.4907 38.289 25.5807C38.3358 25.685 38.3802 25.7893 38.4247 25.8959C38.4668 25.9955 38.5065 26.0927 38.544 26.1922C38.6212 26.3913 38.6937 26.5928 38.7615 26.7942C38.7966 26.8961 38.8294 26.9981 38.8598 27.1023C38.8949 27.2161 38.9277 27.3275 38.9604 27.4413C38.9815 27.5171 39.0025 27.5953 39.0212 27.6712C39.0984 27.9698 39.1639 28.2708 39.2201 28.5766C39.2365 28.6571 39.2505 28.7377 39.2622 28.8183C39.2786 28.9131 39.295 29.0079 39.3067 29.1051C39.3324 29.2805 39.3558 29.4582 39.3722 29.6384C39.3839 29.7355 39.3932 29.8351 39.4002 29.9346C39.4073 30.0152 39.4119 30.0982 39.4166 30.1788C39.4213 30.2641 39.426 30.347 39.4307 30.4324C39.433 30.5082 39.4353 30.584 39.4377 30.6623C39.44 30.776 39.4424 30.8874 39.4424 31.0012C39.4424 31.1647 39.44 31.3283 39.433 31.4918Z" fill="#A9D052"/>
</svg>
