<svg width="53" height="62" viewBox="0 0 53 62" fill="none" xmlns="http://www.w3.org/2000/svg">
<path d="M26.5 0L0 15.4988V46.4988L26.5 62L53 46.4988V15.4988L26.5 0ZM16.9827 30.763C19.1117 26.5819 22.2303 23.3845 26.3643 21.2371C27.5107 20.6445 28.7343 20.2416 30.0491 20.2582C31.7289 20.2772 32.674 21.2371 32.6951 22.9389C32.7115 24.2449 32.3325 25.4584 31.778 26.6056C29.6958 30.891 26.5468 34.1405 22.3754 36.3591C21.7835 36.6743 21.1261 36.8805 20.464 37.1578C19.9235 37.2289 19.3527 37.3593 18.7795 37.383C16.964 37.4588 15.9393 36.4349 15.951 34.5861C15.9627 33.2209 16.3791 31.9552 16.9827 30.763ZM37.7204 29.6348C35.1914 34.8919 31.3592 38.9212 26.3783 41.8366C24.7056 42.8179 22.9228 43.536 20.9997 43.8465C19.8089 44.0385 18.6228 44.0693 17.453 43.7209C15.2866 43.0762 14.1519 41.4811 13.8735 39.3716C13.574 37.1223 14.173 35.0223 15.0596 32.9815C15.0433 33.1024 15.0339 33.2233 15.0129 33.3418C14.8444 34.2756 14.7976 35.2119 15.1181 36.1149C15.6516 37.6413 16.8681 38.4543 18.5713 38.4638C20.2183 38.4733 21.732 37.9423 23.1474 37.1578C27.3726 34.8208 30.5989 31.4835 32.7279 27.0939C33.3361 25.8282 33.7315 24.4938 33.7385 23.0645C33.7573 20.5592 32.164 19.0257 29.6841 19.1892C29.2068 19.22 28.7343 19.3125 28.2359 19.3362C28.7179 19.1442 29.1905 18.938 29.6794 18.765C31.3826 18.1606 33.1256 17.8121 34.934 18.1321C36.6419 18.4331 37.9357 19.3338 38.675 20.9669C38.6914 21.0096 38.7381 21.038 38.7709 21.0759C38.8996 21.5547 39.0306 22.0382 39.1639 22.517C39.178 22.9247 39.2061 23.3324 39.2061 23.74C39.1944 25.8282 38.6118 27.7836 37.7204 29.6348Z" fill="#A9D052"/>
</svg>
