<svg width="54" height="62" viewBox="0 0 54 62" fill="none" xmlns="http://www.w3.org/2000/svg">
<path d="M26.7812 62L0.28125 46.4994V15.5006L26.7812 0L53.2812 15.5006V46.4994L26.7812 62ZM2.62079 45.1318L26.7812 59.2625L50.9417 45.1318V16.8682L26.7812 2.7375L2.62079 16.8682V45.1318Z" fill="#9ECB3B"/>
<path d="M39.4871 23.7415C39.4754 25.8296 38.8928 27.7826 38.0015 29.636C35.4724 34.8929 32.2866 38.5385 26.657 41.8374C24.9866 42.8162 23.2015 43.5344 21.2784 43.8449C20.0876 44.0392 18.9015 44.0677 17.7317 43.7193C15.5676 43.077 14.4306 41.4795 14.1522 39.3701C13.8527 37.1232 14.4516 35.0209 15.3383 32.9802C15.322 33.1011 15.3126 33.2244 15.2939 33.3405C15.1231 34.2743 15.0786 35.2105 15.3968 36.1135C15.9326 37.6399 17.1468 38.4529 18.8523 38.4623C20.4994 38.4718 22.013 37.9409 23.4261 37.1564C27.6513 34.8195 30.8799 31.4847 33.0066 27.0929C33.6172 25.8272 34.0102 24.4928 34.0196 23.0637C34.036 20.5584 32.4427 19.025 29.9628 19.1909C29.4855 19.2193 29.013 19.3118 28.5146 19.3378C28.9966 19.1435 29.4692 18.9397 29.9581 18.7666C31.6637 18.1623 33.4043 17.8138 35.2127 18.1314C36.9206 18.4348 38.2144 19.3331 38.9537 20.9685C38.9701 21.0111 39.0168 21.0396 39.0496 21.0775C39.1783 21.5563 39.3116 22.0398 39.4426 22.5185C39.4543 22.9262 39.4848 23.3339 39.4848 23.7415H39.4871Z" fill="#9ECB3B"/>
<path d="M32.9737 22.9404C32.9901 24.2464 32.6134 25.4622 32.0566 26.6094C29.9744 30.8945 26.8277 34.144 22.654 36.3624C22.0621 36.6776 21.4047 36.8838 20.7426 37.1611C20.2045 37.2322 19.6313 37.3626 19.0581 37.3887C17.2426 37.4645 16.2179 36.4383 16.2296 34.5896C16.2413 33.2244 16.6577 31.9587 17.2613 30.7666C19.388 26.5857 22.5089 23.3884 26.6429 21.241C27.7869 20.6485 29.0105 20.2456 30.3253 20.2622C32.0051 20.2835 32.9503 21.241 32.9714 22.9428L32.9737 22.9404Z" fill="#9ECB3B"/>
</svg>
