<svg width="53" height="62" viewBox="0 0 53 62" fill="none" xmlns="http://www.w3.org/2000/svg">
<path d="M26.5 0L0 15.5006V46.4994L26.5 62L53 46.4994V15.5006L26.5 0ZM28.6243 18.2452C28.7015 18.2191 28.8512 18.1836 28.9963 18.212C29.9719 18.4111 30.8422 18.6884 31.6564 19.0605C31.6868 19.0747 31.7102 19.0937 31.7219 19.1032L31.8248 19.1909L31.7336 19.2904C31.5417 19.4634 31.3475 19.6317 31.1557 19.8C30.7322 20.1721 30.3345 20.5205 29.9578 20.9068C27.8382 23.085 26.5281 25.7158 26.0602 28.7235C25.983 29.2212 25.9432 29.7403 25.9128 30.1859C25.8987 30.385 25.8473 30.5888 25.5712 30.7286C23.7838 31.6245 21.8911 32.0985 19.9469 32.1365H19.9282C19.7668 32.1365 19.6054 32.0914 19.5843 31.8118C19.3691 28.9961 19.968 26.3747 21.3647 24.0259C23.0539 21.1818 25.4963 19.2383 28.6243 18.2452ZM13.6793 30.238C13.8407 27.6593 14.6549 25.339 16.1031 23.3457C18.1291 20.5561 20.8664 18.8116 24.2377 18.1646C24.4646 18.1196 24.6962 18.0935 24.9442 18.0651C25.0635 18.0508 25.1899 18.0342 25.3232 18.0177L25.8449 17.9489L25.4004 18.2357C20.4055 21.4662 18.0847 25.941 18.3069 31.9184L18.3116 32.063L18.1712 32.0393C18.0542 32.0203 17.9373 32.0014 17.818 31.9824C17.5583 31.9421 17.2869 31.8995 17.0225 31.8402C15.9721 31.6056 14.945 31.2406 13.9694 30.7571C13.7097 30.6267 13.6653 30.4561 13.6793 30.238ZM14.6666 35.4807L14.4748 35.3053C14.3999 35.2366 14.3508 35.1655 14.3274 35.0968C14.0302 34.2198 13.8267 33.2741 13.7284 32.2858L13.7097 32.1009L13.8828 32.1602C14.1121 32.2431 14.3391 32.3261 14.566 32.4067C15.0643 32.5915 15.5346 32.7622 16.0235 32.9068C17.4857 33.3405 19.0626 33.4851 20.8407 33.35C22.6982 33.2101 24.5137 32.6887 26.2356 31.7999C26.3573 31.7383 26.5515 31.7454 26.6614 31.8165C28.395 32.9376 29.8011 34.4165 30.8399 36.2107C30.8516 36.232 30.8632 36.2557 30.8773 36.2889L30.9381 36.4311L30.8539 36.4856C30.772 36.5402 30.6878 36.597 30.6059 36.6516C30.4281 36.7724 30.248 36.8933 30.0655 37.0047C28.3319 38.0713 26.4649 38.6922 24.5184 38.8558C24.1254 38.8889 23.7347 38.9032 23.351 38.9032C20.3844 38.9032 17.6752 37.9385 15.2819 36.0235C15.069 35.8504 14.8655 35.6632 14.6666 35.4807ZM32.3816 42.5152C31.2118 43.1409 29.9672 43.5652 28.6804 43.7761C28.3085 43.8354 27.9295 43.8804 27.5622 43.9231C27.3937 43.942 27.2276 43.961 27.0591 43.9823H25.9385C25.8052 43.9657 25.6741 43.9515 25.5408 43.9373C25.2554 43.9065 24.9676 43.8757 24.6845 43.833C21.8069 43.4159 19.3153 42.1265 17.2799 40.0005C16.9968 39.7043 16.7324 39.3819 16.4797 39.0691C16.3838 38.9506 16.2902 38.8344 16.1943 38.7183C16.1288 38.6401 16.0773 38.5595 16.0212 38.4742C15.9955 38.4363 15.9721 38.3983 15.944 38.3604L15.6656 37.9551L16.0961 38.1874C21.3507 41.0386 26.3643 40.868 31.4224 37.6683L31.5441 37.5901L31.6985 38.0073C31.778 38.2229 31.8599 38.4434 31.9348 38.6662C32.3184 39.8157 32.536 41.0007 32.5805 42.1882C32.5852 42.3161 32.4799 42.4631 32.3816 42.5152ZM36.2886 39.2255C36.2676 39.3085 36.2465 39.408 36.1834 39.4815C35.5306 40.2494 34.8101 40.9178 33.9748 41.5269L33.8134 41.6478L33.7924 41.4439C33.6192 39.7849 33.2238 38.2917 32.5851 36.8791C31.4411 34.3478 29.6911 32.2976 27.382 30.7784C27.2463 30.6907 27.1176 30.584 27.1317 30.3423C27.2557 28.2092 27.8289 26.2349 28.8302 24.4691C28.8395 24.4525 28.8512 24.4359 28.8723 24.4099L28.9729 24.2724L29.0618 24.3222C29.2092 24.4028 29.3566 24.481 29.504 24.5592C29.8222 24.7275 30.152 24.9005 30.4632 25.0996C33.7292 27.1782 35.7412 30.1787 36.4407 34.0183C36.7495 35.7082 36.6981 37.4598 36.2886 39.2255ZM39.3207 31.8615C39.2996 32.0085 39.2786 32.1578 39.2599 32.3047C39.2178 32.6318 39.1733 32.9708 39.1148 33.3002C38.93 34.3857 38.6001 35.4215 38.1369 36.379L37.9216 36.8222L37.9146 36.3292C37.8772 33.5088 37.1379 30.9159 35.7178 28.624C34.2556 26.2657 32.295 24.5094 29.7215 23.2556L29.5765 23.1869L29.6865 23.0684C29.8479 22.893 30.007 22.7176 30.1614 22.5446C30.524 22.1417 30.8656 21.7625 31.2469 21.4093C31.6049 21.0775 32.0003 20.7741 32.3816 20.485C32.5758 20.3356 32.77 20.1863 32.9595 20.0346C33.1583 19.8758 33.3151 19.9446 33.4461 20.0323C36.5437 22.1346 38.4551 25.0451 39.1218 28.6808C39.1803 28.9984 39.2224 29.3231 39.2622 29.636C39.2809 29.7806 39.2996 29.9251 39.3207 30.0674V31.8615Z" fill="#A9D052"/>
</svg>
