<svg width="53" height="62" viewBox="0 0 53 62" fill="none" xmlns="http://www.w3.org/2000/svg">
<path d="M26.5 62L0 46.4994V15.5006L26.5 0L53 15.5006V46.4994L26.5 62ZM2.33954 45.1318L26.5 59.2625L50.6605 45.1318V16.8681L26.5 2.73749L2.33954 16.8681V45.1318Z" fill="#9ECB3B"/>
<path d="M31.6989 38.0073L31.5445 37.5901L31.4228 37.6683C26.3647 40.868 21.3511 41.0386 16.0965 38.1874L15.666 37.9528L15.9467 38.358C15.9725 38.396 15.9982 38.4363 16.024 38.4718C16.0801 38.5571 16.1316 38.6377 16.1971 38.7136C16.293 38.8297 16.3889 38.9458 16.4825 39.0643C16.7352 39.3772 16.9995 39.7019 17.2826 39.9982C19.318 42.1242 21.8097 43.4135 24.6873 43.8307C24.9727 43.8709 25.2581 43.9041 25.5436 43.9349C25.6769 43.9492 25.8079 43.9634 25.9413 43.98H25.9553H27.0619C27.2304 43.9586 27.3988 43.9397 27.5649 43.9207C27.9322 43.8781 28.3112 43.8354 28.6809 43.7738C29.9676 43.5628 31.2123 43.1409 32.382 42.5152C32.4803 42.4631 32.5856 42.3161 32.5809 42.1882C32.5365 41.0007 32.3189 39.8157 31.9352 38.6662C31.8603 38.4434 31.7784 38.2229 31.6989 38.0096V38.0073Z" fill="#9ECB3B"/>
<path d="M39.3214 30.0697C39.3003 29.9252 39.2816 29.7829 39.2629 29.6384C39.2231 29.3231 39.181 29.0008 39.1225 28.6808C38.4557 25.0451 36.5467 22.1369 33.4468 20.0323C33.3181 19.9446 33.159 19.8758 32.9625 20.0323C32.773 20.1863 32.5764 20.3333 32.3823 20.4826C32.0009 20.7741 31.6079 21.0751 31.2476 21.4069C30.8662 21.7601 30.5247 22.1393 30.162 22.5422C30.0053 22.7152 29.8485 22.8906 29.6871 23.066L29.5771 23.1845L29.7222 23.2556C32.2957 24.5094 34.2562 26.2633 35.7184 28.6216C37.1386 30.9135 37.8779 33.5064 37.9176 36.3269L37.9246 36.8222L38.1399 36.379C38.6055 35.4215 38.933 34.3857 39.1202 33.3002C39.1763 32.9684 39.2208 32.6318 39.2652 32.3048C39.2839 32.1578 39.305 32.0085 39.326 31.8615V31.8521V30.0674L39.3214 30.0697Z" fill="#9ECB3B"/>
<path d="M30.4634 25.0996C30.1523 24.9005 29.8224 24.7275 29.5042 24.5592C29.3568 24.481 29.2071 24.4028 29.062 24.3222L28.9731 24.2724L28.8725 24.4099C28.8515 24.4383 28.8398 24.4525 28.8304 24.4691C27.8291 26.2349 27.2559 28.2092 27.1319 30.3399C27.1179 30.5817 27.2489 30.6883 27.3822 30.7784C29.6914 32.2953 31.4413 34.3478 32.5854 36.8767C33.2241 38.2917 33.6195 39.7849 33.7926 41.4416L33.8136 41.6454L33.9774 41.5269C34.8103 40.9178 35.5332 40.2494 36.1836 39.4815C36.2468 39.408 36.2702 39.3085 36.2889 39.2255C36.7006 37.4598 36.7521 35.7083 36.4433 34.0184C35.7414 30.1788 33.7294 27.1782 30.4657 25.0996H30.4634Z" fill="#9ECB3B"/>
<path d="M21.3651 24.0259C19.9684 26.3771 19.3695 28.9961 19.5847 31.8118C19.6058 32.0914 19.7695 32.1365 19.931 32.1365C19.938 32.1365 19.9427 32.1365 19.9497 32.1365C21.8938 32.0986 23.7865 31.6245 25.5739 30.7286C25.85 30.5912 25.8991 30.3873 25.9132 30.1859C25.9436 29.7403 25.9834 29.2212 26.0606 28.7235C26.5285 25.7158 27.8386 23.085 29.9582 20.9068C30.3349 20.5205 30.7326 20.1697 31.1561 19.8C31.3479 19.6317 31.5421 19.4634 31.734 19.2881L31.8275 19.1909L31.7223 19.1032C31.7106 19.0937 31.6872 19.0747 31.6591 19.0605C30.8449 18.6884 29.9746 18.4111 28.9967 18.212C28.8516 18.1836 28.7019 18.2191 28.6247 18.2428C25.4967 19.2359 23.0542 21.1818 21.3651 24.0235V24.0259Z" fill="#9ECB3B"/>
<path d="M24.5183 38.8558C26.4648 38.6946 28.3317 38.0713 30.0653 37.0071C30.2478 36.8957 30.4256 36.7748 30.6058 36.6539C30.6876 36.5994 30.7719 36.5425 30.8537 36.488L30.938 36.4335L30.8771 36.2913C30.8631 36.2581 30.8538 36.2344 30.8397 36.2131C29.801 34.4189 28.3949 32.94 26.6613 31.8189C26.5537 31.7478 26.3572 31.7407 26.2378 31.8047C24.5159 32.6935 22.7004 33.2149 20.8429 33.3547C19.0648 33.4875 17.4879 33.3429 16.0257 32.9115C15.5368 32.7669 15.0665 32.5939 14.5682 32.4114C14.3436 32.3285 14.1167 32.2455 13.885 32.1649L13.7119 32.1033L13.7306 32.2882C13.8289 33.2765 14.0324 34.2246 14.3296 35.1015C14.353 35.1702 14.4021 35.239 14.4769 35.3077L14.6688 35.4855C14.8653 35.668 15.0689 35.8552 15.2841 36.0282C17.6774 37.9433 20.3866 38.9103 23.3532 38.9103C23.7392 38.9103 24.1276 38.8937 24.5229 38.8605L24.5183 38.8558Z" fill="#9ECB3B"/>
<path d="M13.9698 30.7571C14.9454 31.2406 15.9748 31.6056 17.0229 31.8426C17.2872 31.9018 17.5586 31.9445 17.8183 31.9848C17.9376 32.0037 18.0546 32.0227 18.1716 32.0417L18.3143 32.0654L18.3096 31.9208C18.0874 25.9433 20.4082 21.4686 25.4031 18.2381L25.8476 17.9513L25.3259 18.02C25.1925 18.0366 25.0686 18.0532 24.9469 18.0674C24.7012 18.0959 24.4673 18.1243 24.2404 18.167C20.8691 18.814 18.1318 20.5584 16.1058 23.3481C14.6599 25.3413 13.8434 27.6593 13.682 30.2404C13.668 30.4584 13.7124 30.6291 13.9721 30.7571H13.9698Z" fill="#9ECB3B"/>
</svg>
