<svg width="21" height="24" viewBox="0 0 21 24" fill="none" xmlns="http://www.w3.org/2000/svg">
<g id="Volleyball Icon">
<path id="Vector" d="M10.3921 24L0 17.9998V6.00023L10.3921 0L20.7843 6.00023V17.9998L10.3921 24ZM0.917466 17.4704L10.3921 22.9403L19.8668 17.4704V6.5296L10.3921 1.05967L0.917466 6.5296V17.4704Z" fill="#F2F2F2"/>
<g id="Group">
<path id="Vector_2" d="M12.4309 14.7125L12.3704 14.551L12.3227 14.5813C10.3391 15.8199 8.37299 15.8859 6.31237 14.7822L6.14355 14.6914L6.25365 14.8483C6.26374 14.8629 6.27383 14.8785 6.28392 14.8923C6.30594 14.9253 6.32613 14.9565 6.35182 14.9859C6.38943 15.0308 6.42705 15.0758 6.46375 15.1217C6.56284 15.2428 6.66651 15.3685 6.77752 15.4831C7.57572 16.3061 8.55282 16.8052 9.6813 16.9667C9.79323 16.9823 9.90516 16.9951 10.0171 17.0071C10.0694 17.0126 10.1208 17.0181 10.1731 17.0245H10.1786H10.6125C10.6786 17.0162 10.7446 17.0089 10.8098 17.0015C10.9538 16.985 11.1025 16.9685 11.2474 16.9447C11.752 16.863 12.2401 16.6997 12.6988 16.4575C12.7374 16.4373 12.7787 16.3804 12.7768 16.3309C12.7594 15.8712 12.6741 15.4125 12.5236 14.9675C12.4943 14.8813 12.4621 14.796 12.4309 14.7134V14.7125Z" fill="#F2F2F2"/>
<path id="Vector_3" d="M15.4199 11.6399C15.4116 11.5839 15.4043 11.5289 15.3969 11.4729C15.3813 11.3509 15.3648 11.2261 15.3419 11.1023C15.0804 9.69488 14.3318 8.56915 13.1161 7.75444C13.0657 7.72049 13.0033 7.69388 12.9262 7.75444C12.8519 7.81407 12.7748 7.87095 12.6987 7.92875C12.5491 8.0416 12.395 8.15812 12.2537 8.28657C12.1042 8.42327 11.9702 8.57006 11.828 8.72603C11.7665 8.79301 11.7051 8.8609 11.6418 8.92879L11.5986 8.97467L11.6555 9.00219C12.6647 9.48753 13.4336 10.1665 14.007 11.0793C14.5639 11.9665 14.8538 12.9702 14.8694 14.062L14.8722 14.2538L14.9566 14.0822C15.1391 13.7115 15.2676 13.3106 15.341 12.8904C15.363 12.762 15.3804 12.6317 15.3979 12.5051C15.4052 12.4482 15.4135 12.3904 15.4217 12.3335V12.3298V11.639L15.4199 11.6399Z" fill="#F2F2F2"/>
<path id="Vector_4" d="M11.9465 9.71598C11.8245 9.63892 11.6951 9.57194 11.5704 9.5068C11.5126 9.47652 11.4538 9.44625 11.397 9.41505L11.3621 9.39578L11.3226 9.449C11.3144 9.46001 11.3098 9.46551 11.3061 9.47193C10.9135 10.1554 10.6887 10.9197 10.6401 11.7445C10.6345 11.8381 10.6859 11.8794 10.7382 11.9142C11.6438 12.5014 12.33 13.2959 12.7787 14.2749C13.0291 14.8226 13.1842 15.4006 13.2521 16.0419L13.2603 16.1208L13.3246 16.0749C13.6512 15.8392 13.9347 15.5804 14.1897 15.2832C14.2145 15.2547 14.2237 15.2162 14.231 15.1841C14.3925 14.5006 14.4127 13.8226 14.2916 13.1684C14.0163 11.6821 13.2273 10.5206 11.9474 9.71598H11.9465Z" fill="#F2F2F2"/>
<path id="Vector_5" d="M8.37803 9.30034C7.8303 10.2105 7.59543 11.2243 7.67984 12.3142C7.68809 12.4225 7.75231 12.4399 7.81562 12.4399C7.81837 12.4399 7.82021 12.4399 7.82296 12.4399C8.58538 12.4252 9.3276 12.2417 10.0285 11.8949C10.1368 11.8417 10.1561 11.7628 10.1616 11.6848C10.1735 11.5123 10.1891 11.3114 10.2194 11.1188C10.4029 9.95449 10.9167 8.93611 11.7479 8.09296C11.8956 7.94341 12.0516 7.80762 12.2176 7.66449C12.2929 7.59935 12.369 7.53422 12.4442 7.46632L12.4809 7.4287L12.4397 7.39476C12.4351 7.39109 12.4259 7.38375 12.4149 7.37825C12.0956 7.2342 11.7543 7.12686 11.3708 7.0498C11.3139 7.03879 11.2552 7.05254 11.2249 7.06172C9.99827 7.44614 9.04044 8.19938 8.37803 9.29942V9.30034Z" fill="#F2F2F2"/>
<path id="Vector_6" d="M9.61473 15.0409C10.3781 14.9785 11.1102 14.7373 11.79 14.3253C11.8616 14.2822 11.9313 14.2354 12.002 14.1886C12.0341 14.1675 12.0671 14.1455 12.0992 14.1244L12.1323 14.1033L12.1084 14.0482C12.1029 14.0354 12.0992 14.0262 12.0937 14.018C11.6864 13.3234 11.135 12.7509 10.4551 12.317C10.4129 12.2895 10.3359 12.2867 10.2891 12.3115C9.61382 12.6555 8.90186 12.8574 8.17339 12.9115C7.47612 12.9629 6.85774 12.9069 6.28433 12.7399C6.09258 12.684 5.90817 12.617 5.71275 12.5463C5.62467 12.5142 5.53567 12.4821 5.44484 12.4509L5.37695 12.4271L5.38429 12.4986C5.42283 12.8812 5.50265 13.2482 5.61917 13.5877C5.62834 13.6143 5.64761 13.6409 5.67697 13.6675L5.7522 13.7363C5.82927 13.8069 5.90909 13.8794 5.99349 13.9464C6.93206 14.6877 7.99449 15.062 9.15783 15.062C9.30922 15.062 9.46151 15.0556 9.61657 15.0428L9.61473 15.0409Z" fill="#F2F2F2"/>
<path id="Vector_7" d="M5.47801 11.906C5.8606 12.0931 6.26428 12.2344 6.67531 12.3262C6.77898 12.3491 6.8854 12.3656 6.98724 12.3812C7.03403 12.3885 7.07991 12.3959 7.12578 12.4032L7.18175 12.4124L7.17991 12.3564C7.09275 10.0426 8.00288 8.3104 9.96167 7.0599L10.136 6.94888L9.93139 6.97549C9.8791 6.98192 9.83047 6.98833 9.78276 6.99384C9.68643 7.00485 9.59468 7.01586 9.50569 7.03238C8.18362 7.28284 7.11019 7.9581 6.31566 9.03796C5.74867 9.80954 5.42847 10.7068 5.36516 11.7059C5.35966 11.7904 5.37709 11.8564 5.47893 11.906H5.47801Z" fill="#F2F2F2"/>
</g>
</g>
</svg>
