<svg width="34" height="35" viewBox="0 0 34 35" fill="none" xmlns="http://www.w3.org/2000/svg">
<g id="Layer_1" clip-path="url(#clip0_216_478)">
<path id="Vector" d="M10.5406 16.0826C12.2186 14.4536 14.0085 12.7103 15.8067 10.9629V13.5947H18.156V0C17.2942 0.0465426 16.5484 0.088854 15.8026 0.131165C15.5001 4.75157 13.9961 8.50459 10.9466 11.5679C7.90543 14.6228 4.16817 16.0022 0 16.2899V18.8413H23.2605C21.8062 20.3391 20.0536 22.1458 18.2886 23.9652C18.243 23.0766 18.1974 22.1712 18.1477 21.198C17.261 21.253 16.6064 21.2953 15.9227 21.3376V35.0042C16.7473 34.9661 17.406 34.9323 18.0855 34.9027C19.2167 25.078 24.5574 19.7044 34.0041 18.6086V16.091H10.5406V16.0826Z" fill="white"/>
</g>
<defs>
<clipPath id="clip0_216_478">
<rect width="34" height="35" fill="white"/>
</clipPath>
</defs>
</svg>
