<svg width="14" height="11" viewBox="0 0 14 11" fill="none" xmlns="http://www.w3.org/2000/svg">
<path id="Vector" d="M0.700422 0.500001H13.3008C13.4284 0.500382 13.5534 0.533951 13.6625 0.597093C13.7715 0.660234 13.8605 0.750558 13.9197 0.858341C13.979 0.966125 14.0063 1.08729 13.9988 1.20879C13.9912 1.33029 13.9491 1.44752 13.8769 1.54787L7.57672 10.23C7.31561 10.59 6.68699 10.59 6.42518 10.23L0.125005 1.54787C0.0520805 1.44773 0.00931579 1.33044 0.00135729 1.20873C-0.00660121 1.08703 0.0205509 0.965579 0.0798637 0.857567C0.139176 0.749555 0.228381 0.659116 0.337786 0.596076C0.447191 0.533037 0.572612 0.499809 0.700422 0.500001Z" fill="#9ECB3B"/>
</svg>
