<svg width="8" height="13" viewBox="0 0 8 13" fill="none" xmlns="http://www.w3.org/2000/svg">
<path id="Vector" d="M0.305918 12.2359C0.110038 12.0667 -9.23253e-07 11.8373 -9.12272e-07 11.598C-9.01291e-07 11.3588 0.110038 11.1294 0.305918 10.9602L5.47795 6.49455L0.305919 2.02889C0.11559 1.85874 0.0102749 1.63086 0.0126553 1.39431C0.0150361 1.15777 0.124922 0.9315 0.318646 0.764233C0.512371 0.596966 0.774434 0.502089 1.04839 0.500034C1.32235 0.497978 1.58628 0.58891 1.78334 0.753245L7.69408 5.85673C7.88996 6.02591 8 6.25533 8 6.49455C8 6.73377 7.88996 6.9632 7.69408 7.13238L1.78334 12.2359C1.5874 12.405 1.32169 12.5 1.04463 12.5C0.767572 12.5 0.501857 12.405 0.305918 12.2359Z" fill="#9ECB3B"/>
</svg>
