<svg width="48" height="49" viewBox="0 0 48 49" fill="none" xmlns="http://www.w3.org/2000/svg">
<g clip-path="url(#clip0_171_7159)">
<path d="M24 0.5C10.7453 0.5 0 11.2453 0 24.5C0 37.7547 10.7453 48.5 24 48.5C37.2547 48.5 48 37.7547 48 24.5C48 11.2453 37.2547 0.5 24 0.5ZM20.1158 39.7304L15.2323 34.8488V24.6786L20.1096 19.8013L20.1158 19.797V39.7304ZM21.6101 35.5794V19.7965H20.1158L26.4917 13.4206V29.2035H27.9859L21.6101 35.5794ZM32.8694 24.3214L28.0008 29.1901L27.9859 29.203V9.2696L27.9922 9.27392L28.0008 9.28256L32.8694 14.1512V24.3214Z" fill="#F2F2F2"/>
</g>
<defs>
<clipPath id="clip0_171_7159">
<rect width="48" height="49" fill="white"/>
</clipPath>
</defs>
</svg>
