<svg width="179" height="48" viewBox="0 0 179 48" fill="none" xmlns="http://www.w3.org/2000/svg">
<g id="Wordmark Logo" clip-path="url(#clip0_2127_245)">
<path id="Vector" d="M19.0327 0.518982H0V7.33999H5.13601V47.481H13.8317V8.87515L10.5752 7.33999H19.0327V0.518982Z" fill="#9ECC3B"/>
<path id="Vector_2" d="M34.5618 0.518982V20.1054H30.1923V0.518982H22.0596V47.481H30.1923V28.9762L26.9358 27.441H34.5618V47.481H42.6946V0.518982H34.5618Z" fill="#9ECC3B"/>
<path id="Vector_3" d="M61.9961 0.518982H46.1724V47.481H61.9961V40.66H54.8724V27.7027H61.221V20.8163H54.8724V8.87515L51.6158 7.33999H61.9961V0.518982Z" fill="#9ECC3B"/>
<path id="Vector_4" d="M110.255 0.523346H94.4316V47.4854H110.255V40.6644H103.132V27.7071H109.48V20.8206H103.132V8.87952L99.8751 7.34435H110.255V0.523346Z" fill="#9ECC3B"/>
<path id="Vector_5" d="M130.492 28.9631L127.62 32.6484L133.449 0.518982H125.369L124.091 12.9311H123.182L121.831 0.518982H113.243L116.248 17.0307L119.068 13.4109L117.318 23.0449L112.546 47.481H121.073L122.74 34.0352H123.632L125.299 47.481H134.09L130.492 28.9631Z" fill="#9ECC3B"/>
<path id="Vector_6" d="M147.164 0.518982V39.1248C147.164 39.9535 147.164 41.5017 145.839 41.5017C144.44 41.5017 144.44 39.7747 144.44 39.1248V0.518982H135.74V37.5766C135.74 44.2973 139.326 48 145.839 48C152.352 48 155.934 44.2973 155.934 37.5766V0.518982H147.164Z" fill="#9ECC3B"/>
<path id="Vector_7" d="M173.806 22.9664L169.376 18.9584C167.687 17.3971 167.05 16.5989 167.05 14.366V8.8708C167.05 8.22097 167.05 6.49827 168.445 6.49827C169.415 6.49827 169.904 7.29638 169.904 8.8708V16.4637L178.089 14.9286V10.6197C178.089 3.67218 174.797 0 168.57 0C162.343 0 158.545 3.8728 158.545 10.6197V15.984C158.545 20.2798 160.004 22.4343 162.698 24.9071L167.444 29.1027C168.912 30.3805 169.648 31.0216 169.648 33.2415V39.1248C169.648 40.7036 169.159 41.5017 168.189 41.5017C167.552 41.5017 166.79 41.0874 166.79 39.1248V31.34L158.545 32.8752V37.3803C158.545 44.3278 161.923 48 168.315 48C174.706 48 178.154 44.2275 178.154 37.3803V32.596C178.154 27.7812 177.015 25.8884 173.806 22.9664Z" fill="#9ECC3B"/>
<path id="Vector_8" d="M90.9547 0.518982V47.481H83.1294L77.2399 20.9733V27.9731L79.5307 45.091V47.481H70.7051V0.518982H78.5303L84.4199 27.0311V20.0312L82.129 2.90895V0.518982H90.9547Z" fill="#9ECC3B"/>
</g>
<defs>
<clipPath id="clip0_2127_245">
<rect width="178.154" height="48" fill="white"/>
</clipPath>
</defs>
</svg>
